<?xml version="1.0" encoding="UTF-8"?>
<svg xmlns="http://www.w3.org/2000/svg" xmlns:xlink="http://www.w3.org/1999/xlink" version="1.1" viewBox="0 0 595.3 841.9">
  <!-- Generator: Adobe Illustrator 29.5.1, SVG Export Plug-In . SVG Version: 2.1.0 Build 141)  -->
  <defs>
    <style>
      .st0 {
        fill: #1d1d1b;
      }

      .st1 {
        opacity: .4;
      }

      .st2 {
        display: none;
      }
    </style>
  </defs>
  <g id="Lag_1" class="st2">
    <image class="st1" width="302" height="356" transform="scale(2 2.4)" xlink:href="Skærmbillede 2025-05-11 kl. 15.04.51.png"/>
  </g>
  <g id="Lag_2">
    <path class="st0" d="M22.6,29.6c4.8,0,10.3-1,14.3-3.8s3-4.8-1.3-4.8-10.3,1-14.3,3.8-3,4.8,1.3,4.8h0Z"/>
    <path class="st0" d="M41.5,46.6c4.6,0,10.6-3.6,11.1-8.6s-5.2-7.3-9.6-7.3-10.6,3.6-11.1,8.6,5.2,7.3,9.6,7.3h0Z"/>
    <path class="st0" d="M19.6,29.4c.8,14.3,14,22.7,26.5,26.5s30.5,6.1,45.2,4.1,15.2-3.1,22.2-6.4,13.1-8,20-11.3,4.7-2.3,7.2-2,5.4,2,5.7,4.1-4.6,6.3-6.1,8.1c-3.1,3.5-6.2,6.9-9.2,10.4s-2.3,6.7,2.1,7.9,11.2-.3,14.3-3.8c5.7-6.4,12.7-12.6,17.3-19.8s.4-13.2-6.2-16.6c-15.5-7.8-33.2,1.7-46.4,9.7s-11.5,6.6-18.4,7.6-14.6.4-21.8-.7c-13.6-2.1-31.1-6.5-32.1-23.2s-9.1-3.5-11.6-2.8c-3.9,1.1-8.9,3.6-8.7,8.3h0Z"/>
    <path class="st0" d="M26.8,29.2c3.7,1.2,5.7,5.1,8.5,7.5,4,3.4,9.2,4,14.4,3.8s12.7-2.2,18.6-4.4,9.3-4.2,14.3-5.3c10.2-2.1,21.4-2.9,31.8-2.6s22.4,2.9,31.8,9.5,9.7.5,13.1-.8,9.1-4.1,5.9-6.3c-19.6-13.7-44.6-12.2-67.2-9.7-12.2,1.3-23.2,4.2-34.6,8.8s-6.4,2.7-10.4-1.3-5.4-6-9.7-7.4-10.3.4-14.2,2.4-6.8,4.5-2.3,5.9h0Z"/>
    <path class="st0" d="M49.9,45.3c7,1.1,13.6,3.6,20.6,4.6s14.4,1.1,21.6.2,14.7-2.9,21.7-5.7,6.2-2.8,9.1-4.4,3.9-2.7,5.7-3c3.5-.4,7.9-1.9,10.1-4.8s2.1-4.9-.8-6.2c-11.7-5.3-24.4-5-36.9-3.3s-25.7,3.8-37.5,9.3-6.2,3.3-6.1,6.4,3.8,3.9,6.3,4.1c17.4,1.6,34.8.1,51.7-4s9.7-3.8,8.7-8.1-8.7-3.4-11.6-2.7c-13.5,3.3-27.3,4.1-41.1,2.8l.2,10.5c7.9-3.7,16.4-4.9,25-6.2s17.1-2.3,25.2,1.3l9.3-11c-12.5,1.4-22,10.5-34.3,12.8-12.3,2.3-22.8-2.2-34.7-4.1s-10.7.3-14.3,3.8-2.5,6.9,2,7.6h0Z"/>
    <path class="st0" d="M40.4,24.1h0c2-3.9-1.2-6.8-4.8-7.5s-9.6.8-13.2,4.1-3.3,4.1-3.6,6.8c-1,10.3,18.3,5.5,20.5-1.9l.3-1.1-1.9,3.5c-6.8,1.3-8.4,2.2-4.7,2.5.9.2,1.8.3,2.7.4,2.1.3,4.2.6,6.4.8,3.6.3,7.3.5,11,.6,8.2.2,16.5,0,24.7-.3,15.4-.5,31-1,46,3s10.9,0,14.3-3.8,2.1-7.7-2.4-8.9c-20.1-5.3-40.7-4.2-61.3-3.7-9.5.3-19.1.3-28.6-.9s-10.9-1.9-16.7,0-8.8,4.7-10.3,9.8l20.5-1.9h-.2c-6-1-12-2.1-18-3.3-1.3,2.5-1.5,4.4-1.1,7.1,1.3,8.5,21.6,3.6,20.3-5.4h0Z"/>
    <path class="st0" d="M95.5,42.7c4,0,11-1.6,13.5-5s-2.4-4.1-5-4.1c-4,0-11,1.6-13.5,5s2.4,4.1,5,4.1h0Z"/>
    <path class="st0" d="M102.5,29.7c4.4.6,8.8,1.2,13.2.9s10.7-1.3,13.4-5.5-2.3-5.8-5.5-5.9-6.5-.1-9.7,0-10.7,1.4-13.4,5.5,2.2,6,5.5,5.9,6.5,0,9.7,0l7.9-11.4c-1.7,0-3.4,0-5,0s-2.7-.3-1.1,0c-.8,0-1.7-.2-2.5-.3-4.8-.6-10.7.3-14.3,3.8s-2.5,2.6-2,4.4,2.4,2.6,3.9,2.8h0Z"/>
    <path class="st0" d="M95.8,43c4.2,0,10.7-3.3,11.3-7.9s-5.5-6.1-9.2-6.1-10.7,3.3-11.3,7.9,5.5,6.1,9.2,6.1h0Z"/>
    <path class="st0" d="M117.6,30.3c6.1,2,12,2.5,18.4,1.5s10.9-3.2,16.5-4.3,5.1,4.5,4,8.4c-1.6,5.7-5.4,10.5-8.4,15.5-6.2,10.2-8.4,20.7-8.1,32.5s.6,25.2,13.6,26.9,10.7-.3,14.3-3.8,2.6-6.7-2-7.3-4.8-9.7-5.2-13.4c-.6-5.9-.7-11.8.1-17.7,1.7-11.6,9-19.6,13.8-29.9s3.9-20.7-8.2-22.8-13,.2-19,1.9-9.6,4.1-13.8,2.6-10.1-.8-14.4,1.9-6.5,6.4-1.7,8h0Z"/>
    <path class="st0" d="M128.7,99.2c4.7,0,10.3-1.3,14.3-3.8s3-4-1.1-4-10.3,1.3-14.3,3.8-3,4,1.1,4h0Z"/>
    <path class="st0" d="M121.8,110.5c3.6-7.1,7.4-14.1,11.6-20.8,2-3.2,4-6.3,6.1-9.4s3.4-6.2,5.7-7.4c3.8-2.1,7.7-6.8,4.6-11.1s-9.9-4.1-13.9-1.9c-8.7,4.7-13.6,13.3-18.7,21.5s-10.4,17.3-14.9,26.3,2.2,8.6,6.4,9.2,10.8-1.7,13.2-6.4h0Z"/>
    <path class="st0" d="M95.6,118.8c.1,3.9,1,8,4.3,10.6s10.9,3.1,16,3.3c12.1.6,26,.4,37.6-3.5s8.9-4.9,9.6-11.1.4-8.3-2.5-11.7-3.2-2.4-4.7-3.7-3.1-4.1-4-6.6c-2.1-5.7-3-11.7-3-17.8s-8.5-1.9-9.9-1.6c-3.5.7-8.8,2.3-10.3,5.9-2.7,6.5-6.5,12.2-10.5,17.9s-9.2,10.9-10.7,17.1,7.5,7.9,11.7,8.9c7.3,1.7,14.7,1,22-.7s9.2-2.9,9-6.8-4.4-6.6-6.7-9.1-6.1-5.3-2.3-9.3-2.9-4.7-5.1-4.6c-4.7.1-10.1,1.8-13.5,5.2s-5.3,7-2.5,11.1,9.6,7.9,9.8,12.1l9-6.8c-3.3.8-10.1-.9-12.1-3.8l.6,2.2c.8-6.6,7.2-12.9,10.9-18.2s7.8-11.8,10.6-18.3l-20.2,4.3c0,8.2,1.3,18.3,6.8,24.8s5.9,3.8,7.1,7.2.5,7.8-.9,11l4-3.7c5-1.5,5.9-1.9,2.5-1.2-.9.2-1.9.3-2.8.4-1.6.2-3.3.4-4.9.6-4,.3-8.1.5-12.2.3s-7.6.4-10-1.4-2.4-5.7-2.5-8.2c-.1-4.9-20.5-1.3-20.3,5.4h0Z"/>
    <path class="st0" d="M42.2,140.3c-1.5-2.9-3.4-7.8-1.6-11s5.1-3.6,7.6-4.4c9-2.9,18.8-4,28.3-4.7s20.2-1.2,29.9-5,16.2-9.8,23.2-16.2,5.3-7.6,1-10.7-11.1-2-14.6,1.2c-7,6.3-13.9,13-23.6,14.5s-23.4,1.7-35,3.8-22.3,4.6-30.7,12.1-8.3,19.2-3,29.5,10.3,3.4,13.8,1.6,7.1-6.1,4.7-10.7h0Z"/>
    <path class="st0" d="M46.9,145.1c0-1.3-.4-1.1,1.3-2.1s3.1-1.7,4.7-2.5c4.2-2.1,8.5-3.6,13.2-4.2,9.9-1.1,19.9.7,29.7,1.4s19.6.7,29-2.1,19.3-7.6,22.5-17-16.4-11.4-19.5-2.6-13.5,6.6-19.2,6.7c-10.2.1-20.4-1.8-30.6-2.1s-21.6,1.7-31.7,6.2-19.4,9.2-20,19.6,20,8.1,20.6-1.4h0Z"/>
    <path class="st0" d="M21.8,130.2c-3.1,8.8-4.9,24.6,7.3,27s13.9-.8,18.6-5,4.5-8.6,4.5-13.8-1.2-6.5,0-8.2,4.2-1.4,5.4-1.7c5.1-1.4,10.3-2.1,15.5-2.4,11.7-.7,23.5.5,35.2,1.6s10.6-.5,14.3-3.8,2.7-6.2-1.8-6.6c-18.7-1.9-37.6-3.6-56.2-.2s-19.9,4-27.4,9.6-5.6,5.9-5.5,10.7.4,5.5.2,8.2-1.3,4.4,0,3.7l7.7-2.6c3,.8,3.6.6,1.8-.8l-.6-1.3c-.7-1.5-.8-3.4-.8-5-.2-4.1.7-8.1,2.1-12s-6.5-4.2-8.6-3.9c-3.9.5-10.1,2.4-11.6,6.6h0Z"/>
    <path class="st0" d="M156.8,112.7c30.6,2,61.4,1,91.9-1.9s30-3.4,44.9-5.8,34.5-2.8,36-18.3c.9-9-19.6-5.5-20.4,2.2s.6.8-.6,1.5c-2,1.3-7.3,1.2-9.7,1.6-6.5,1-13,2-19.5,2.9-12.7,1.7-25.4,3.2-38.1,4.2-25.6,2.1-51.3,2.5-76.9.9s-11,1.5-13.3,5.8,2,6.6,5.7,6.9h0Z"/>
    <path class="st0" d="M118.4,138.4c13.9,1,25.7-4.7,38-10.4,11.9-5.5,24.6-5.8,37.5-6.9,29.9-2.6,60.1-4.1,89.8-8.1s10.7-2.8,11.3-7.8-5.5-6.5-9.2-6c-29.1,3.9-58.6,5.4-87.8,7.9s-28.3,1.5-41.5,6.4c-5.8,2.1-11.2,4.9-16.8,7.4s-8.9,4-13.9,3.7-11,1.5-13.3,6,1.9,7.5,6,7.8h0Z"/>
    <path class="st0" d="M101.1,137.3c11.3,2.3,22.8,1.8,34.2.8s22.1-2.8,33.1-1.3,21.5,4.9,31.8,8.7,10.5,4,15.7,6.3,10,3.8,13.4,7.7,23.8-2.1,18.9-7.8-8.1-5.8-12.6-7.9-10.9-4.8-16.5-6.9c-11.2-4.2-22.8-8.1-34.6-10.2-12-2.1-24-1.5-36.1-.3-11.6,1.1-23.2,2.6-34.8.2s-10.8.6-14.3,3.8-2.4,6,1.8,6.8h0Z"/>
    <path class="st0" d="M129.1,124.9c4.5,0,10.9-1.4,13.3-5.7s-1.9-6.8-5.7-6.8-10.9,1.4-13.3,5.7,1.9,6.8,5.7,6.8h0Z"/>
    <path class="st0" d="M96.3,137.2c21.6,1.5,43.5-1.7,65,1.2,20.3,2.7,39.3,11.2,57.8,19.5,4.2,1.9,10.5,0,14.3-2.2s6.4-4.9,2.1-6.8c-19.2-8.5-38.7-17-59.6-20.1-22.2-3.3-44.6.1-66.9-1.4s-10.5.7-14.3,3.8-2.8,5.7,1.6,6h0Z"/>
    <path class="st0" d="M245.2,155.2c-8.7-6.1-17.5-11.9-26.8-17.1s-10.7-.4-14.4,1.9-5.9,5.6-1.8,8c8.3,4.7,16.3,9.7,24.1,15.2s9.2,2,13.4.2,9.2-5.5,5.4-8.2h0Z"/>
    <path class="st0" d="M342.4,159.6c-23.3-.4-46.3-4.4-68.8-10.1s-21.5-6.2-32.3-9-22.1-4.6-33.1-6.6-10,.4-14.2,2.5-7.1,4.8-2.4,5.7c11.1,2.1,22.2,3.8,33.1,6.6,11.4,2.9,22.7,6.6,34.2,9.4,23.1,5.8,46.7,9.7,70.5,10.2s10.4-1,14.3-3.8,3-4.8-1.3-4.9h0Z"/>
    <path class="st0" d="M227.3,163.5c6.4,4.3,13.5,2.5,20.7,3.2s10.2,4.9,11.6,11-.5,15.6-2.3,22.9-4.4,15.1-7.5,22.4,16.2,7.5,19,.9,6.6-16.8,8.9-25.6,4.3-17.5,2.3-26.1-7.1-13.5-14.6-16.1-7.4-1.7-11.2-1.9-7.6,1-10.8-1.1c-5.9-4-24.5,4.5-16,10.3h0Z"/>
    <path class="st0" d="M282.8,197.2c10.7-8.4,24.7-7,37.3-4.2,14.5,3.2,31,10.5,35.5,26.1,2.2,7.6-1.3,11.5-6.9,15.9s-8.6,7.4-7.9,13.2,8.4,10.2,14.4,10.5c9.7.5,20.1-3.2,28.2-8.5s2.7-4-1.1-4.2-10.6,1.3-14.3,3.8c-.8.5-1.6,1-2.4,1.5,3.5-.3,4-.7,1.6-1.2-1.6-1.4-3.3-1.8-4.6-3.7s-2-5.9-.3-8.6c2.8-4.6,8.5-6.7,11.8-11.1,9.6-12.7-6.6-29.1-17.2-34.6-27.6-14.6-67.6-12.8-92.4,6.7-3.7,2.9,3.2,3.2,4.7,3.1,4.6-.4,9.9-1.9,13.6-4.8h0Z"/>
    <path class="st0" d="M290.7,184.5c1-10.1-1.2-19-6.7-27.4l-17.6,8.4c11.9,6,25.7,6.7,38.8,7.5s28.4.8,42.6,0l-6-3.7c-2.3,6.3-3.2,12.6-3.1,19.3,6.5-2.2,13.1-4.3,19.6-6.5-6.6-6.8-17.1-6.3-25.8-6.4s-23.1-.2-34.6-.3l6,2.5c-.3-1.9-.1-3.2.5-5l-16.4,6.5c19.5,3.4,39.4,3.6,59.1,1s10.8-2.3,11.7-6.4-6.2-3.8-8.5-3.5c-16.5,2.2-33.1,1.8-49.5-1.1-4.6-.8-14.7,1.2-16.4,6.5s-.9,4.9-.6,7.6,4.5,2.4,6,2.5c9.6,0,19.2.2,28.8.3s15.8-1.5,20.8,3.7,19.7-.1,19.6-6.5,1-11.3,3-16.8-4.2-3.8-6-3.7c-12.9.7-25.8.8-38.7.2s-23.9-1.1-34.5-6.5-21.8,1.9-17.6,8.4,6.3,14.9,5.5,22.8,19.6,3.2,20.2-2.9h0Z"/>
    <path class="st0" d="M357.6,163.2c10.8-7.1-4.9-17.9-10.6-22.6-8.6-7.2-16.2-13.5-18-25.3s-.7-12.3,1.2-18.3,4.4-10.5,5.8-16.1c2.8-11.1,2.3-22.7-1.2-33.5-1.7-5.3-21.9.5-20.3,5.4,3.3,10.2,4.1,21,1.5,31.4s-3.7,10.1-5.5,15.2c-1.9,5.4-2.5,11.1-2.2,16.8.6,10.4,4.8,18.6,12.4,25.5s7.7,6.3,11.4,9.7,11.1,8.3,8.6,12.3l2.2-2.3-.9.6c-3.4,2.2-2.3,4.7,1.4,5.2s10.4-1.3,14.3-3.8h0Z"/>
    <path class="st0" d="M338.9,20.8c-9.6-.8-23.2,1.7-26.9,12.1-2.9,8.2,1.5,18.5,2.4,26.8,1,9.1.1,19.3-6.6,26.2-6.6,6.8-16.5,8.7-25.3,10.8s-9.8,3.5-8.8,7.6,8.9,2.8,11.5,2.2c18.3-4.4,39.7-11,47.4-30s2.9-17.8,1.6-26.4c-.6-4.2-1.7-8.4-2.3-12.6s.3-4.1,0-6.1,2.6-2.3-1.8-.6-1.2,1,.8,1.1c4.2.3,11.1-1.6,13.4-5.5s-2.1-5.5-5.4-5.7h0Z"/>
    <path class="st0" d="M254,111.8c13.4.6,27.1-1.2,40.3,1,5.5.9,11.1,2.3,13.3,7.9s4.3,10.2,8.6,14.5,23.2-3.2,19-7.4-4.5-5.1-5.8-8.3-1.7-5.5-3.4-7.9c-3.4-4.8-9.7-6.5-15.2-7.6-14.5-3.1-29.3-1-44-1.7s-10.5.8-14.3,3.8-2.9,5.4,1.5,5.6h0Z"/>
    <path class="st0" d="M306.6,106.5c4.1,0,11-1.6,13.5-5.2s-2.3-4.5-5.1-4.5c-4.1,0-11,1.6-13.5,5.2s2.3,4.5,5.1,4.5h0Z"/>
    <path class="st0" d="M330.2,108.6c4.8-12,16.5-19.4,23.7-29.9s12.4-25.4,8.1-38.9c-2-6.2-5.6-11.8-10.7-15.9s-17.2-6.2-23.1.8-1.9,12.2.4,18.1,4.9,13,2.9,20.2-7.3,13.6-12.2,19.5c-5.2,6.3-10.3,12.6-13.9,20-2.2,4.5,2,8,6.2,8.5s11-1.6,13.2-6.2c6.4-13.2,18.8-22.4,24.8-36,3-6.8,4.3-14.1,2.7-21.5s-2.3-7.2-3.7-10.7-3-6.1-2.2-8.9l-1.8,3.7-.4.3-7.6,2.8h1.2c-1.7-.3-3.3-.5-5-.7,6,1.8,9.3,11.1,10,16.6s-1.4,14.6-5,20.8c-7.5,13-21.4,20.8-27.2,35.2-4.3,10.8,16.1,10.6,19.4,2.3h0Z"/>
    <path class="st0" d="M367.4,166.5c1.3-16.5-19.7-25.7-28.8-36.7-10-12-10.1-29.4-.2-41.5s-2.6-5.9-5.5-6c-4.8-.2-10.3,1.7-13.4,5.6-9.9,12.1-11.9,29.9-4.1,43.6,4.1,7.1,10.1,12.5,16.3,17.8s16.1,11.5,15.4,19.9c-.6,8.2,19.7,4.4,20.3-2.5h0Z"/>
    <path class="st0" d="M331.2,34.2c3.2-4.3,7.3-5,12.5-5.5s15-1.4,22.1.2,15,6.6,22.7,9.2,18.1,4.2,27.1,3.1,16.3-4.4,24.6-6.2c7.5-1.5,15.3-1.2,22.8-.5,17.2,1.5,34.3,4.9,51.6,2.3s10.6-2.9,11.2-8-5.4-7-9.3-6.4c-17.6,2.6-35-1.8-52.6-2.7-9.5-.5-18.9,0-28.2,2.1s-16,5.8-24.6,5.2-16.7-4.5-24.7-8.1-17.6-5.3-27.2-5.3c-15.5,0-35,1.2-45.1,14.8-7.6,10.3,11.5,13,16.9,5.7h0Z"/>
    <path class="st0" d="M353.6,75c4.2-9.6,12.7-18.6,23.5-20.2s27.6,2.7,41.1,4.7,29.3.7,43.6-3.8,13.8-5.1,20.6-8.1,12.4-5.4,17.6-9.8-3.1-3.1-4.7-3c-4.5.4-10.1,1.8-13.6,4.8s-11.7,6.3-17.4,8.7-11.1,4.3-17,4.5c-14.4.7-28.6-4.6-42.9-5.9-25.6-2.3-59.4,6.1-70.7,31.9-1.4,3.2,6.9,1.9,8,1.7,3.1-.6,10.4-1.9,11.9-5.4h0Z"/>
    <path class="st0" d="M343.7,33.5c2.6,6.2,5.5,12.6,11.8,15.7,7.8,4,16.5,2.3,23.9-1.7s5.5-5.1,3-7.6c-3.9-3.8-9.7-3.6-14.6-2.2s-5.6,2.2-7.7,4.1-1.7,1.8-2.5,2.8-1.9,1.9-.8,1.2l16.6,2.4c1.8-6.3,2.8-12.7,3.1-19.3-6.5,1.7-13,3.5-19.6,5.2,8.8,7.5,17.3,13.6,29.1,15s11.8,0,17.8.3,11.1,2,16.7,3.3c24,5.3,48.1-1.4,70-11.3,2.5-1.1,6.2-3.5,6-6.6s-3.7-4.1-6.3-4.3c-13.4-1.3-26.9-1.8-40.4-1.7s-28.4-1.2-39.1,6.4c-3.8,2.7-5.9,8.1.3,9.4,14.6,3.2,29.4,4.7,44.4,4.4s10.9-1.3,13.3-5.7-1.9-6.8-5.7-6.7c-13.4.3-26.7-.9-39.8-3.8.1,3.1.2,6.3.3,9.4-.2.2-1.3,0-.6,0s2.1-.2,3.1-.3c2.6-.2,5.3-.3,7.9-.4,5.4-.2,10.8-.3,16.2-.2,10.9,0,21.7.7,32.5,1.7-.1-3.6-.2-7.3-.3-10.9-17.2,7.7-34.4,12.7-53.1,8s-19.1-2.9-29.2-3.1-16.7-4.7-24.1-11.1-7.3-2.5-10.9-1.5-8.5,3.2-8.7,6.8c-.3,6.6-1.3,13-3.1,19.3s3,4.6,5.2,4.9c3.8.6,8.2-.5,11.4-2.6s3.1-2.3,4.4-3.8c.5-.6,1-1.2,1.4-1.8,2.9-3.7-.2-3-9.3,2l-3.3-1.8.7.7,3-7.6c10-5.5,6,0,4.3-2s-2-1.6-2.8-2.7c-1.8-2.3-2.9-5.1-4.1-7.8-3.2-7.6-23.2-1.6-20.3,5.4h0Z"/>
    <path class="st0" d="M495,42.3c14.3-3.9,30,0,39.2,12.1s4.3,13.8,8,20.2,4.5,5.7,6.1,9,1.8,9.6,1.4,14.4c6.7-1.4,13.5-2.9,20.2-4.3-.6-8.4,0-16.6,1.4-24.9s1.6-12.6-2-18.7c-6.8-11.3-18.3-20.7-30.2-25.9-14.6-6.4-31-4.8-46.4-3.2s-33.2,4.6-49.7,7.4-10.9,2.2-11.7,6.1,6.4,3.3,8.4,2.9c14.9-2.6,29.8-5.2,44.8-6.9,13.4-1.5,27.1-3,39.7,3s21.8,14.6,26.5,24.9c2.8,6.3.7,12.5-.2,19s-1.2,14.5-.6,21.8,19.8.6,20.2-4.3c.4-4.9,1.1-10.3-.6-15.1s-5.4-7.7-7.4-12-2.2-9.3-4.2-13.7-4.2-7.3-7.1-10.2c-14.9-15.1-38.5-14.6-57.5-9.4-2.3.6-10.1,3-9.1,6.6s9.2,1.7,11.2,1.2h0Z"/>
    <path class="st0" d="M292.3,191.7c4.3,0,10.7-3.3,11.2-8s-5.5-6.3-9.3-6.3-10.7,3.3-11.2,8,5.5,6.3,9.3,6.3h0Z"/>
    <path class="st0" d="M359.8,171.9c2.5-1.5,1.8-1.3,4.8-1.6s5.2,0,7.8.2c6.7.7,13.3,2.4,19.9,3.9,12.8,2.9,25.6,4.2,38.7,3.5,26-1.3,52.2-9.8,73.7-24.5,3.1-2.1,2.7-4-1.1-4.2s-10.6,1.3-14.3,3.8c-19.4,13.2-41.9,19.1-65.4,16.4-13.2-1.6-25.8-6-39-7-13.9-1.1-28.5,2-40.5,9.2s-2.5,4,1.1,4.2,10.4-1.4,14.3-3.8h0Z"/>
    <path class="st0" d="M381.7,218.2c7.2-10,16.8-18.3,28.5-22.6,13-4.8,27.5-3,41-2.7,29.3.6,58.5-7.5,77.7-30.9,2.9-3.6-2.6-4.7-5.1-4.6-4.3.1-10.6,1.6-13.5,5.2-7.4,9.1-17.3,16.6-28.9,19.2s-29.7.5-44.3.9c-28.5.8-56.9,12.5-74,36.1s2.3,4.7,5.1,4.6c4.1,0,10.9-1.6,13.5-5.2h0Z"/>
    <path class="st0" d="M343.2,177.2c.3,9,1.3,18.7,8.8,24.7s20.4,5.2,29.7,1.2l-13.6-5c-1,1.3-2.3,2.4-3.6,3.5l18.4-.8c-.7-11.7-2.7-23.1-5.9-34.3-6.1,2.6-12.1,5.2-18.2,7.8,14.2,7,29.4,4,44.4,7,0-3.1-.2-6.1-.3-9.2-10.8,5.8-19.9,13.9-27.2,23.8l19.6-2.3c-1.9-4.4-2.6-8.9-.9-13.4l-2,3.1.8-.9-9.5,4.1c-1.9.3-2.8-.5-.3.5s2.5.8,3.7,1.2c2.8.9,5.5,1.9,8.3,2.7,6,1.6,12,1,17.7-1.5,3.5-1.5,6.4-3,10.4-3.1s10,.8,15,1c21.6.8,43-3.3,63-11.3s6.9-3.9,6-7.3-6.1-3.5-8.9-3.3c-15.9,1.3-31.6,4.2-46.9,8.6-3.3.9-9.7,3.7-8.7,8.2s8.7,3.6,11.6,2.8c13.6-3.9,27.3-6.4,41.4-7.6l-2.8-10.6c-11,4.4-22.4,7-34.2,8s-24.4-2-36.4-.2-6.2,1.2-9.2,2.2-8.4,2.4-8.6,3.5c.2-1.4,7,.4,1-1.5s-3.1-1-4.6-1.5c-2.9-.9-5.8-2.1-8.8-2.7-6.8-1.3-16.3,1.6-18.6,8.6s-.9,11.1,1.2,15.9c3.2,7.3,16.3,2.2,19.6-2.3,5.6-7.6,12.7-13.4,21-17.9s5.5-8-.3-9.2c-13.2-2.6-28.4.4-40.6-5.7s-20.4.2-18.2,7.8c3.3,11.2,5.2,22.7,5.9,34.3s5.7,3.4,7.6,3.3c4-.2,7.7-1.5,10.8-4.1s4.3-4.2,6.1-6.5,0-5-2.4-5.9c-3.5-1.3-7.9-.6-11.2.9s-6.1-3.3-7.3-5.7c-2.4-5-2.5-11-2.7-16.5s-9.2-3.4-11.6-2.8c-4,1.1-8.8,3.6-8.7,8.2h0Z"/>
    <path class="st0" d="M502.1,167.2c4.4,0,10.7-3.4,11.1-8.3s-5.3-6.8-9.4-6.8-10.7,3.4-11.1,8.3,5.3,6.8,9.4,6.8h0Z"/>
    <path class="st0" d="M482.6,175.5c9-1.8,15.2-8,21.3-14.4s11.4-9.4,18.3-12.4,14.1-4.5,21.4-5.1,7.4-.7,11-.3,2,.5,3,.6c.6.2.9.5,1.1.9.4,1.2.9.6,1.7-1.6l4.9-2.3c-1.6.5-5.8,0-7.8,0-3.5,0-6.9,0-10.3.3-6.3.5-12.3,2-18.2,4.1-11.1,4.1-21,11.3-28.3,20.7l18.7,2.1c.4-2.6,1.4-5.2,3.4-7,6.6-5.6,2.1-12.4-5.8-11.9s-10.8,2.9-14.2,7.4-3.7,7.7-6.8,10.8c-6.3,6.4-16.3,7.8-24.7,9.4l3.7,13.7c15.9-3.3,32.5-.6,48.2,2.4s16,3.3,24.1,4.9,17.6,2.7,23.7-4.4.9-14.7-6.1-17.8-12.6-1.9-19.1-2.2-11.4-2.9-11.2-9,6.9-10,11.5-11.4,9.5-4.6,8.3-9.6-8.1-4.9-12-4.2c-10.9,2.2-21,7.8-28.8,15.8-7.7,7.8-11.4,19.6.5,25.3s23.3-8,11.7-13.6c1.9.9.4,0,1-.8s.9-1.8,1.6-2.6c1.5-1.9,3.3-3.5,5.2-4.9,3.8-2.8,7.9-4.4,12.5-5.3l-3.7-13.7c-13.6,4.2-34.7,18.4-26.7,35.3s11.7,11.8,19.9,13.1,7.7.3,11.6.4,3.1.4,4.5.4-.6,2.2,2-.5l4-3c3.8-.3,4.5-.6,2.2-.8l-1.8-.3c-1.9-.3-3.7-.7-5.5-1-3.7-.7-7.4-1.5-11.1-2.3-7.7-1.6-15.4-3.2-23.2-4.4-15.7-2.4-31.3-2.7-46.9.6-4.1.8-9.5,4.9-8.3,9.6s8.1,4.9,12,4.2c10.4-2.1,20.7-4.7,29.7-10.5s7.4-5.5,10.1-9.1,3.6-8,5.6-9.4l-4.9,2.3h-.5c-1.9-3.9-3.9-7.9-5.8-11.9-5.6,4.8-9.3,10.4-10.6,17.7s3.6,6.1,6.7,6.5,9.4-1,12-4.4c4.6-6,10.4-10.9,17.5-13.7s15-2.7,22.6-2.5,21.3-1.6,21.8-12.7c.4-8.4-8.3-12.5-15.3-13.8-15.7-3-34.2,1.1-48.8,7s-14.8,7.1-21.1,12.3c-3.3,2.8-6.4,5.9-9.4,9s-3.5,3.9-6,4.4c-4.1.8-9.5,4.9-8.3,9.6s8.1,4.9,12,4.2h0Z"/>
    <path class="st0" d="M378.3,195.1c-5.4,8.6-12.7,18.2-13.4,28.7s4.1,19.3,12.4,25.1,18.5,8.2,28.3,10,24.8,3.3,37.2,4.2,11.1-1.6,13.4-5.6-2.1-5.9-5.5-6.1c-10-.8-20-1.5-29.9-3.2-8.4-1.4-17.5-3-24.9-7.6s-11.4-12.5-10.5-20.9c.9-8.8,7.3-16.8,11.9-24.1,2.5-4-2.2-6-5.5-6.1s-10.9,1.6-13.4,5.6h0Z"/>
    <path class="st0" d="M369.1,281.5c7.8-2.1,16.5-4.7,22.3-10.6s5.2-11.8,3.2-18.3-5.6-7.7-12.2-7.9-7.1-7.5-4.5-12.1-7.2-2.2-8.1-2c-3.6.6-9.9,2-11.9,5.5s-2.5,8.4-.3,12.1,7.2,4.8,11.7,4.8,2.7-.2,3.9,1.9,2.4,6.7,2.4,9.7c.1,6-2.9,9.2-8.2,10.6s-10.1,2.8-9.3,5.9,9.5.8,11,.4h0Z"/>
    <path class="st0" d="M255.1,307.3c17.4-27.4,55.9-22,83.6-23s36.4-1.3,53.8-4.9,16.5-5.5,25.1-7.1,16.5-2,24.8-2.5,10.8-2.8,11.4-7.2-5.8-5.2-8.9-5c-9.6.6-19.1,1.4-28.5,3.2s-17.2,5.6-26,7.3c-9.4,1.8-19.2,2.1-28.7,2.8s-19.7,1.3-29.6,1.4c-34.1.3-75.6,2-96.1,34.1-2.6,4.1,2.3,6.5,5.7,6.7s10.7-1.6,13.3-5.7h0Z"/>
    <path class="st0" d="M385.1,262.1c2.9,1.5,4.2,4,6.5,6s5.5,1.9,8.3,2c7.4.1,14.8,0,22.2-.1s9-1.4,12.1-3.9,3.6-4.2.3-5.2c-5.3-1.6-9.9-4-14.4-7.2s-9.6-.8-13.2.6-9.1,4.3-5.8,6.8c5.2,3.8,10.8,6.6,16.9,8.5l12.4-9.1c-6.5,0-12.9,0-19.4.1-.6,0-1.2,0-1.8,0-1.7,0-1.2,0,1.3.3,0-.1-1.8-2.1-2-2.3-2.1-2.3-4.4-3.6-7.1-5-3.9-2-10.7.4-14.3,2.3s-6.2,4.3-2.2,6.4h0Z"/>
    <path class="st0" d="M376.6,281.9c43.2-.3,86.4,0,129.6.6,4.3,0,11-1.5,13.4-5.5s-2-5.9-5.5-6c-43.2-.7-86.4-.9-129.6-.6-4.3,0-11,1.4-13.4,5.5-2.3,4,2,6,5.5,6h0Z"/>
    <path class="st0" d="M433.2,261.4c16.6.4,32.2-5.7,47.7-10.8,15-4.9,29.8-10.9,44.9-15.2,6.2-1.8,12.5-2.6,18.6,0s10.1,8.2,7.5,14.6c-4.2,10.4-16.1,17-26.6,19.2-13.9,2.9-28.4,1.2-42.4.6-4.1-.2-8.3-.3-12.4-.3s-8.3.9-11.8.3c-6.9-1.2,2.9-8.2,5.5-9.4,4.9-2.2,10.4-3.2,15.6-4.4s14.4-3.4,21.4-5.6,14.8-4.9,22.2-7.3,6.7-2,10.1-2.9,3.4-1.3,4.7-1.1-.5,0-.4.1c.9.5,1.5,1.3,1.9,2.3,2.9,6.8-5.7,16.4-10.4,20.4s-3.3,2-6.8,2.6-8.3,1.2-12.4,1.5c-8.8.8-17.7,1.2-26.6,1.5s-17.5,1-26.1.5l3,.8c-1.3.7-1,.6.9-.3l1.7-.8c1.7-.8,3.3-1.5,5-2.3,3.3-1.5,6.7-3,10-4.5,6.2-2.7,12.5-5.2,18.9-7.5,12.9-4.5,25.9-6.8,39.4-8.2l-5.7-2.7c-1.9,6.2-4.1,12.7-7.5,18.4s-3.4,3,.7,1.2,0-.6-1.6-.4c-3.3.4-6.7.6-10.1.7-14,.7-27.9,1-41.9,1.6l4.9,3.8c5.9-6.3,16.1-9.4,24.1-12.2s8.5-2.7,12.8-3.8,10-2.7,12.9-2.3l-3-.8c2.1,1.4.4,3.3-.3,4.9s3.7-.3-.1-.1-8.9,1.2-13.2,1.8c-9,1.3-18,2.8-27,4.4l4.1,5.8c5.9-3.3,12.3-4.9,18.8-6.6s7.4-2,11.1-3,3.7-1,5.5-1.5c.9-.2,1.8-.5,2.8-.7,3-.7,2.4-.8-1.7-.2l-3-.8c.6.5-1.3,3.8-1.7,4.3-.5.9-1.1,1.7-1.8,2.4-1.8,1.6-1.3,1.5,1.6-.4l7.9-1.7c-4.3.2-8.5-.6-12.8,0s-9.1,1.8-13.5,3.5-8.4,3.3-5.9,6.2,10.8,0,13.1-.9,7.2.3,10.5,0c5.7-.5,11.7-2.5,16-6.4s11.8-14.4,1.5-15-10.8,1.7-15.9,3.1-9.8,2.7-14.7,4c-10.2,2.7-20.5,5.4-29.7,10.6s-5,2.6-3.9,4.8,6.5,1.3,8,1c14.8-2.7,30.1-3.9,44.8-7,6.6-1.4,14.2-4,18.5-9.5s2.5-10.3-4.3-10.8-14.8,1.7-21.6,3.2-14.3,3.6-21.3,6c-12.4,4.2-27.8,9.4-37,19.2-3.2,3.4,2.8,3.9,4.9,3.8,18.3-.7,36.9-.4,55.1-2.6s18.6-2.4,24.2-9.2,7.5-14.6,9.8-21.8c.9-2.9-4.2-2.9-5.7-2.7-24.9,2.5-48.3,8.2-71.4,18s-10.5,4.5-15.7,6.9-11.9,4.3-16,8.3-1.6,6.8,3.1,7.1,13.2,0,19.6-.2c12-.3,24.1-.6,36-1.7,12.2-1.1,25.1-2.2,36.4-7.2s19.3-13.1,22.7-23.2,1.6-8.6-1.6-11.5-11.1-2.9-16-2.1c-12.2,2-24.1,6.3-35.8,10.2s-20.8,6.2-31.5,8.6-20.7,5.4-29.5,11.4-8.2,5.7-9.2,9.9,3.7,6.8,7.5,7.4,10.6,0,15.8,0,12.8.4,19.1.8c11.9.6,23.8,1,35.6-.4,20-2.4,42.8-9.9,55-27s5.6-10.1,3-15.3-6.1-7.1-10.4-8.8c-12.1-5-26.5-2.4-38.5,1.1-13.6,4-26.8,9.1-40.2,13.6s-13.5,4.5-20.3,6.6-10.8,3.9-16.5,3.8-10.4,1-14.3,3.8-2.9,4.9,1.3,5h0Z"/>
    <path class="st0" d="M421.8,267.2c4.7,0,10.3-1.4,14.3-3.8s3-3.8-1-3.8-10.3,1.4-14.3,3.8-3,3.8,1,3.8h0Z"/>
    <path class="st0" d="M432.7,262.6c15.9-1,31.4-4.4,47-8,2.5-.6,10-3.2,9-7s-9-2.1-11.3-1.6c-12,2.8-24.1,5.6-36.4,6.4s-10.9,1.4-13.5,5.3,2.1,5.1,5.2,4.9h0Z"/>
    <path class="st0" d="M511.1,282.4c17.7.4,34.8-5.3,48.2-17,5.9-5.1,12.5-12.3,13.2-20.4.7-9-5.7-14.5-14.1-15.7s-11.1,1.7-13.3,5.9,2.1,6.7,5.8,7.2c-.8-.1.9,2.5,1,3.5.3,2.3-.5,4.5-1.7,6.4-2.3,3.9-5.8,7.2-9.5,9.8-6.5,4.7-14.2,7.3-22.3,7.1s-11,1.4-13.3,5.9,1.9,7.1,5.8,7.2h0Z"/>
    <path class="st0" d="M216.5,277.4c19.5,6.8,39,10,59.7,8.9,20.5-1.1,40.6-2.4,61.1-.9s11.1-1.5,13.3-6-1.9-7.5-6-7.8c-20.3-1.5-40.3-.9-60.6.5s-18.5.9-27.8-.4-18.8-4.1-27.9-7.3-11.1.2-14.3,3.8-1.9,7.6,2.4,9.1h0Z"/>
    <path class="st0" d="M378.4,263c-2.1,7.7-8.5,10.4-15.8,10.9s-20.6-.7-30.7-1.4c-21.8-1.5-43.1-1.5-63.9,5.9s-7.9,5.3-5.2,8.9,10.1,1.9,13.5.7c20.8-7.4,44.6-2.7,66.1-1.7,20.5,1,49.8-1.6,56.3-25.6,2.2-8.1-18.3-5.4-20.4,2.2h0Z"/>
    <path class="st0" d="M397.2,273.6c4.6,0,10.9-1.3,13.3-5.9s-1.8-7.3-5.9-7.3-10.9,1.3-13.3,5.9,1.8,7.3,5.9,7.3h0Z"/>
    <path class="st0" d="M346.4,284.2c7.5-.9,14.8-2.7,21.7-5.8s12.9-6.5,15.8-12.8c2.7-5.8.7-12-5-14.8s-5.9-2-8.8-2.8-3.3-.9-4.9-1.3-2-1.1-2.5,0c4.4-9.6-15.9-8.1-19.1-1.2-5.3,11.7,10.9,13.5,18.5,15.8s2.9,4.5-.2,6.3-8.5,3.4-13,4-10.7,2.7-11.4,7.4,5.7,5.7,9,5.3h0Z"/>
    <path class="st0" d="M370.4,284.4c12.4-3.7,25.2-8,38.3-7.4s10.5-.7,14.3-3.8,2.9-5.6-1.5-5.7c-18.4-.8-35.8,3.6-53.3,8.9s-10.1,3-9.1,6.8,9.2,2,11.2,1.3h0Z"/>
    <path class="st0" d="M344.2,287.2c26.2-2.4,52.3-5.1,78.4-8.3s10.6-3.1,11.1-8.3-5.3-7.4-9.4-6.9c-26.1,3.1-52.2,5.9-78.4,8.3-4.5.4-10.6,3.2-11.1,8.3s5.3,7.3,9.4,6.9h0Z"/>
    <path class="st0" d="M259.6,314.6c9.1-27.7,43.8-27,67.3-27,30.9,0,61.5-3.5,92.2-6.5,4.2-.4,10.8-1.4,13.5-5.1s-2.2-4.4-5-4.1c-17.8,1.7-35.6,3.5-53.4,5-17.5,1.4-34.8,1.1-52.3,1.5s-33.4,2.5-48.8,8.9c-13.9,5.8-28.6,15.5-33.5,30.4s18.2,2.4,20.1-3.3h0Z"/>
    <path class="st0" d="M228.2,341.9c-1.7-10.6-14.5-13.8-17.4-23.7s2.5-13.1,8.4-15.8,5.4-1.9,8.2-2.3,8.4-1.4,11.3-.2-1.4,5.9-2.6,7.8c-2,3.1-4,6.3-5.7,9.5-3.5,6.4-6.3,13.3-7.9,20.4s-1.3,14.4-2.1,21.7-3.4,16.2-7,23.7l20.1-4.6c-3.7-6-1.3-12.8-1-19.4s-1.2-12.5-4.1-18.1-6.8-10.2-11.8-13.1-14.5-2.8-21.6-2.8-7.4,0-11,0-7.8.7-8.7-3.7c-1.4-6.3,8.3-13.3,12.7-16.4,11.2-7.9,27.1-8.3,36.5-19.1s4.3-14.8,3.1-21.6c-1.7-10.1-17.3-3.8-22.7-1s-3.9,2.6-1.9,3.5c6.9,3.1,10,10.2,15.6,14.8s17,8.2,25.3,11.5l3.8-4.5-1.2.6,7.7-2.4c5.2-.8,0-1.4-1.8-2s-4.5-1.2-6.8-1.4c-4.2-.5-8.4-.5-12.6-.1-9.6,1-19,4.1-27.5,8.7s-14.4,9.3-21.2,14.5-13.7,9.3-12.6,17.4c.4.7,1,1,1.8,1.1,3.3,1,6.6,2.1,9.8,3.1s20.6-3.2,18.5-6.5c-5.1-8.3,2.9-15,9-19.7s16.2-13.9,20.7-9.2l-.4-1.5-.2.7,9.2-4.7c4.3-1.3,1.1-.7-1-.9s-2.2-.2-3.2-.2c-3.5,0-7.1.6-10.5,1.4-6.4,1.5-12.5,4-17.7,8.1s6.3,2.7,7.2,2.5c4.9-1,9.7-1.3,14.7-.7s9.8-.7,14.1-2.7,7.2-4.4,2.6-4.9c-9.3-1-18.4-.5-27.5,1.4l7.2,2.5c2.8-2.1-3.4-.2-2.3.2s2.1.2,3,.3c2.8.3,5.4.3,8.1,0s16.6-2.4,16.3-7.3-9.1-3-11.6-2.9c-6.7.3-13.3,1.7-19.6,3.9-10.7,3.7-20,9.9-28.9,16.8s-14.9,13.4-9.6,22.2l18.5-6.5c-3.3-1-6.6-2.1-9.8-3.1l1.8,1.1c-1-6.9,7.4-11.3,12.1-14.9s11.1-8.5,17.2-11.5,10.5-.8,16.1,1,14.9,1.1,21.8-2.2,6.4-3.4,3.8-4.5c-8.3-3.3-18.2-5.8-25.3-11.5s-8.7-11.7-15.6-14.8l-1.9,3.5.9-.5-14.3,3.8h1.1c-1-.2-2-.3-2.9-.5,3.6,1.6,2.5,8.8,2.6,12.1s.1,8.1-3.4,11.3c-5.7,5.2-15.3,6.4-22.1,9.7s-14.5,8.3-20.3,14.2-11,12.4-4.2,17.3,7.6,2,11.3,2,8.6,0,12.9,0,10.1-.8,14.4,1.1,6,4.2,8.2,6.8c4.7,5.8,7.5,13.3,7.8,20.7s-3.2,15.5,1,22.4,18.4-.9,20.1-4.6c3.2-6.7,5.4-13.7,6.7-21s.8-14.7,2-21.9,3.9-14.2,7.2-20.6,3.6-6.5,5.5-9.6,4.4-5.5,5.3-8.6c2.1-6.8-9.5-5.7-13.4-5.7-8.5,0-17,1.3-25.1,3.6-11.6,3.2-30.6,9.4-31.4,24.1s16,16.2,17.9,27.8,21-.7,20.3-5.4h0Z"/>
    <path class="st0" d="M129,259.1c27.9,15,60.1,14.1,89,2.4,13.6-5.5,26.6-13,38.1-22.2s10.7-9.3,13.9-15.6,3.5-14,3.7-21.2-7.3-2-8.5-1.8c-3.7.6-8.4,1.9-11,4.9-.7.8-1.4,1.7-2.1,2.5-3,3.5,2.6,4.5,5.1,4.4,4.3-.1,10.5-1.6,13.5-5.1.7-.8,1.4-1.7,2.1-2.5l-19.4,3.1c-.2,5.9-.4,11.9-2.8,17.4s-6.2,8.9-10.3,12.2c-8.6,6.8-18.1,12.8-28.1,17.1-21.1,8.9-43.9,8-64.2-2.9s-9.2-1-13.2.6-9.4,4.8-5.8,6.7h0Z"/>
    <path class="st0" d="M128.5,254.6c26,8.6,54.3,7.7,79.9-2s24.3-12.2,35.1-20.3,10.7-8.3,16-12.5,6.2-4.5,8.6-7.4,2-6.1,3-7.3c2.8-3.6,2-8-2.6-9.6s-11.3,0-14.3,3.8-2.1,4.6-3.5,7.2-2.7,2.9-4.6,4.3c-4.8,3.8-9.7,7.7-14.6,11.4-9,6.9-18.4,13.2-28.9,17.5-19.7,8.1-42.3,8.1-62.4,1.5s-11,0-14.3,3.8-1.9,8.1,2.6,9.6h0Z"/>
    <path class="st0" d="M258.6,167.9c1.3,7.6,2.7,15.6.3,23.2s-6.9,12.7-11.1,18.3c-9.3,12.5-19.7,22.3-32.1,31.8s-5.3,7.2-1.2,10.1,10.9,1.4,14.5-1.3c7.3-5.6,14.5-11.2,21-17.6s11.5-13.1,16.7-20.2,10.3-14,12.6-22.5,1-18.2-.5-27.2-21.8-3.9-20.3,5.4h0Z"/>
    <path class="st0" d="M168.3,260.4c24.8,2.9,51.9-5.7,70.2-22.7l-19.2,2.5c-5.5,9-14.3,15.4-24.7,17.3s-11.5,1.7-16.8.2-5-2.5-7.5-3.5-6.1-1.5-9.6-1.4-10.9,1.6-13.6,4.9,2.5,3.5,4.8,3.4c-2.3,0,2.5,1.7,3.4,2.2,1.6.8,3.3,1.6,5,2.1,4.1,1.3,8.5,1.5,12.8,1.5,8.9-.1,17.8-1.3,26.4-3.6,15.8-4.2,31-12.3,39.8-26.6s-6.2-2.3-6.9-2.2c-4.1.5-9.2,1.8-12.3,4.7-11.1,10.3-23.7,14.6-38.7,12.8s-10.6,1.3-14.3,3.8-2.7,4.1,1.2,4.5h0Z"/>
    <path class="st0" d="M193.2,251.5c-7.8,2.9-16.4,1.6-24.5,1.2s-17.3,0-25.4-2c-13.1-3.2-23.4-13.3-34.6-20.3s-29.3-11.6-46.1-9.2-17.7,3.5-25,8.9-5.7,5.1-8.2,8-2.6,3.1-3.9,4.6-3.1,2.5-1.3,1.7l5.4-1.4h-.8c1.7.3,3.3.5,5,.7l-.8-.3,3.5,2.5c-3.1-3.4,3.1-9.3,5.8-11.1,4.6-3.1,10.2-4.3,15.5-4.9,12.6-1.5,27.4-3,39.4,2.1,11.3,4.9,20.3,14.1,30.9,20.3,12.9,7.5,27.2,10.6,42,11.6s11-1.4,13.2-6.3-1.8-8.6-6.3-8.8c-13.4-.9-25.9-3.4-37.2-10.8s-19.1-14.7-30.2-19.6-26.8-5.2-40.3-4.5c-13.4.7-27,2.6-38.5,10s-21.9,20.4-12.8,31.1,14.2,3.6,19.4-.5,7.8-9.3,12.3-13.4,8.4-4.3,13.1-4.8,12.5-1.3,18.5.4c10.3,3,18.9,10.3,27.6,16.3,11.9,8.1,23.9,13.2,38.4,14.1,8.3.5,16.6.9,24.9,1.2s17,.5,25.1-2.4,9.6-4.7,8.2-9.9-8.1-5.9-12.1-4.5h0Z"/>
    <path class="st0" d="M202,253.9c-12.4,2.4-25,4.8-37.6,3.7-12.6-1.1-22.4-6.9-32.5-14s-24.6,4.5-15.9,10.7c12.6,8.9,25.3,15,40.9,16.3s32.4-1.7,48.3-4.8,9.6-4.3,8.5-8.7-8.5-3.9-11.7-3.2h0Z"/>
    <path class="st0" d="M43.6,313.1c-3.5,0-7.1-8.3-5.8-11.1l-3.1,2.9c-3.1,2.2.6,0,1.9-.2s3-.8,4.6-.8c3.1,0,5.6,1.3,8,3.1,5,3.7,9.3,8.2,14.6,11.5,11.5,7.1,25.1,10.2,38.5,11.8,27.8,3.3,62.3,2.7,82.8-19.3,2.9-3.1,2.3-6.5-2-7.6s-11.2.5-14.3,3.8c-11.6,12.4-28.5,12.7-44.4,12.1-15.6-.6-31.7-2.9-45.1-11.4s-11.6-10.9-19-13.9-19.2-2.2-28.3.3-10.3,2.7-13.1,6.9-1.5,6.8-.9,9.9c1.7,8.8,9.2,14,17.9,14.1s11-1.4,13.4-5.7-1.9-6.4-5.6-6.4h0Z"/>
    <path class="st0" d="M38.9,311.3l.9-.2-5.3.7c-1.3,0-1.3-.5-.6.5s.9,1,1.3,1.5c1,1.3,1.8,2.7,2.9,3.9,2.5,2.7,5.9,4.1,9.5,4.9s10.8-.8,14.3-3.8,2.3-5.6-1.7-6.5-4.9-5-7-7.2c-4.4-4.6-11.1-4.3-16.8-2.9s-10,3.4-8.9,7.3,8.9,2.5,11.4,1.9h0Z"/>
    <path class="st0" d="M28.1,319.9c23.3,11.3,49.9,13.5,75.4,14.8s54.1.6,79.1-9.8,8.4-3.1,6-6-10.9.1-13.1,1c-19.7,8.2-41.9,7.1-62.7,6s-45.4-3.3-65.6-13-9.3-.4-13.1,1-9.3,4.4-6,6h0Z"/>
    <path class="st0" d="M33,304.5c8.3,7.5,16.7,17.3,27.6,20.7s11-.5,14.3-3.8,2-6.9-2.2-8.2-7.2-4.6-10.3-7.4-7.2-6.4-10.7-9.6-9.4-2.5-13.6-.7-8.8,5.7-5.2,9h0Z"/>
    <path class="st0" d="M20.5,310.4c3.7,10.7,13.4,16.8,23.6,20.5s27.4,6.1,41.3,5.6,28.1-2.9,42.2-3.7,28.6-.4,42.9.3c4.7.3,11-1.4,13.2-6.1s-1.8-7.8-6-8c-13.1-.7-26.2-1.1-39.4-.7s-26.2,2-39.4,3.2c-12,1.2-24.1,1.3-35.9-1.7-8.6-2.2-19-5.7-22.3-14.9s-23.3-3.1-20.3,5.4h0Z"/>
    <path class="st0" d="M71,325.9c4.3,0,11-1.4,13.4-5.4s-2-5.6-5.4-5.6-11,1.4-13.4,5.4,2,5.6,5.4,5.6h0Z"/>
    <path class="st0" d="M82.9,334.3c18.5,1.9,37.1,3.7,55.7,3.2s18.5-1.1,27.6-2.7,16.8-4.2,24.8-1.7,10.1.3,14.3-2.1,6.7-5.6,2-7.1c-18.2-5.5-36.4,1.9-54.7,2.9s-38.1-.7-57.1-2.7c-4.8-.5-10.6.6-14.3,3.8s-2.7,5.9,1.7,6.3h0Z"/>
    <path class="st0" d="M22.6,307c-6.6,14.5,11.5,21.3,22.1,24.1,15.5,4.1,31.5,5.9,47.5,6.4s32.6-.6,48.8-2.2,16.1-1.8,24.2-2.9,17.8-2.4,26.2-6.1,6.5-3.5,2.6-5-10.6,1.1-14.2,2.7c2.2-1-1.8.1-2.1.1-1.5.2-3.1.4-4.6.6-3.4.5-6.8.9-10.2,1.3-6.5.8-13,1.5-19.6,2.1-13.2,1.2-26.5,1.8-39.8,1.4s-25.9-2-38.6-5.1-28.6-7.6-22.5-21.1-7-1.9-8.1-1.7c-3.1.6-10.4,1.9-11.9,5.4h0Z"/>
    <path class="st0" d="M153.5,408.3c-1.6-8.2,6.1-15.9,11.8-20.8s12.3-8,19.4-10.4c8.3-2.8,16.9-4.9,25.1-8.1s15.3-6.7,16.2-14.7-3.9-14.4-8-19.9c-5.9-7.8-15.5-7.2-24.3-7.7-18.7-1-37.5-1.1-56.2-.6s-11,1.4-13.4,5.5,2,5.8,5.4,5.7c17.4-.5,34.9-.4,52.3.4s9.2-.3,12.9.8,5,4.4,6.7,7,3.7,6.4,4.2,10-.3,4.2-3.6,5.5c-14.9,5.7-30.8,8.3-44.4,17.2-11,7.2-27.1,20.6-24.2,35.5s21.6,1.8,20.3-5.4h0Z"/>
    <path class="st0" d="M18.8,436.3c6.7,12.7,26,7.4,37.3,6.3s32.2-2.8,48.2-4.9,25.6-7.6,35.4-17.8,13.7-17.7,23.1-23.7,5.5-6.5,1.5-9-10.7-.8-14.4,1.6c-8.4,5.5-14.8,13-21.2,20.6s-11.2,13.7-19.7,15.3c-12.3,2.4-25.2,2.7-37.7,3.9s-13.7,1.4-20.6,2.1-10.4,2.4-11.6.2c-2.2-4.2-7.6-4.3-11.7-3.1s-10.7,4.5-8.6,8.6h0Z"/>
    <path class="st0" d="M219.5,371.8c-4.5,6.5-12.8,9.9-19.4,13.9s-16.3,10.3-24.1,16c-13.9,10.2-26.8,22.5-35.6,37.5s-3.9,7.2-5.5,11-1.7,3.2-2.1,4.8c-.7,2.9,6.6.9,5.3-1.2s-1.9-1.4-2.5-2.3c-5.4-7.4-.6-17.1,4-23.5,9.4-13,21.8-24.7,34.7-34.1s30.2-17.9,47.5-21.3l-9.5-6.6c-8.1,6.4-13.4,16.4-22.4,21.6s-9.9,4.9-14.5,7.9-10.1,7.1-15,10.9c-17,13.4-33.4,29.3-39.5,50.7s6.2,4.6,8.7,4.3c4.3-.5,9.7-2.5,11.5-6.8,7.6-18.4,16.4-39.5,32.3-52.3,8-6.4,17-11.7,25.8-17s19.2-11.3,29-16.5,5.7-5.6,1.8-7.8-10.6,0-14.4,1.9c-10.4,5.5-20.6,11.4-30.7,17.5s-20.2,12.3-29.2,19.8c-17,14.3-26.6,36.9-34.9,57,6.8-.9,13.5-1.7,20.3-2.6,5.8-20.2,22-34.5,38.1-46.9s8.5-6.3,13.1-8.9,9.2-4.4,13.4-7.4c8.8-6.1,14.4-15.5,22.8-22.1s2.9-4.3.6-6-7.1-1.2-10.1-.6c-19.8,3.9-38.8,12.5-55.3,24-16.3,11.3-32.2,25.4-43.5,41.8-5.7,8.2-10.2,19.1-4.9,28.6s18.2,10,27.4,5.9c10.3-4.6,12-15.9,17.4-24.8s12-16.3,19.5-23,19.9-15.4,30.6-22c9.8-6,21.3-11.2,28-20.9s-2.4-5.8-5.5-5.9c-4.5-.1-10.7,1.6-13.4,5.5h0Z"/>
    <path class="st0" d="M40.5,479.3c-.9-2.1-2-4.3-2.3-6.5s.2-2,0-2.8l.3-.9-3.3,1.9c.8.6,5.9-.6,7-.7,2.5-.3,4.9-.5,7.4-.7,10-1,20.3-1.8,29.6-5.8s17.2-9.9,15.3-18.3-5.7-6.5-9.7-8.2-9.3-3.5-14.2-4.5l.7,10.7c2.8-2.3-.8-.3,0-.3,1.5,0,2.9.2,4.4.4,4.4.6,8.8,1.3,13.3,1.6,9.5.7,19,.7,28.5.7,4,0,9.8-2.9,11-7s-2.6-6.5-6.3-7c-16.4-1.9-32.9-2.5-49.4-1.8s-15.6.9-23.3,1.9-7.4.8-11.1,1.5,0-.8-1.8,1l-4,2.9-3.1.9-4.9-.5c2.1.5,4,2.1,6,2.9s5,1.6,7.6,1.9c5.4.6,10.9.6,16.3,1.4s10.3,1.8,15.3,3.2,8.6,2.4,9,6.3l.5-3.6c-1.2,3.3-7.7,4.9-11.3,5.4-6.9,1.1-13.9.8-20.8,1.8s-13.9,2.9-19.5,7.5-7.8,11-9.6,17.8,6.1,6.5,9.2,6.1c7.3-1,11.8-4.3,17.2-8.8s9-4.3,13.6-5.8c12.3-4.1,24.9-8.2,37.9-9.6,12.8-1.4,25.3,1.5,38.1,1.8s26.1-2.1,38.7.9c4.9,1.2,10.8,0,14.3-3.8s2.2-8-2.5-9.1c-13.8-3.3-27.4-1.9-41.3-1.8-13.9,0-27.5-3.1-41.6-2.1-13.9,1-27.6,4.6-40.9,8.9s-13.2,4.2-19.6,6.7-6,2.8-8.7,4.7-2.8,2.3-4.2,3.5-2.6,1.2.9.8l9.2,6.1c.7-2.7,1.5-7.1,3.9-8.8s7.7-1.3,10.8-1.5c9.7-.6,19.2-1.4,28.3-5,6.2-2.4,19.3-9.4,17.6-17.8s-11.4-11.6-18.1-13.5c-9.5-2.7-19.4-4.3-29.2-4.9s-6.6,0-9.8-1.9c-5-2.9-10.3-3.7-15.9-1.7s-13.1,11.7-6.3,18.3,17.7,3.4,25.8,2.3c23.1-2.9,46.3-3,69.4-.3l4.6-13.9c-11,0-21.9-.1-32.8-1.7s-20.5-2-28.7,4.8-5.9,9.3.7,10.7c4.6.9,9.2,2.2,13.4,4.1.6.3,1.3.6,1.9,1,.9.6.9.4,0-.7-.5.7-1,1.3-1.7,1.8-5.4,3.8-15.5,3.2-21.7,3.8-8.7.9-19.3.6-26.7,6.1s-7.4,14.7-3.8,22.9,7.6,4.9,11.9,3.8,10.3-4.7,8.4-9.2h0Z"/>
    <path class="st0" d="M93.1,454.6h49.4c4.7,0,10.9-1.3,13.3-6s-1.8-7.7-6-7.7h-49.4c-4.7,0-10.9,1.3-13.3,6s1.8,7.7,6,7.7h0Z"/>
    <path class="st0" d="M138.9,443.1c7.7,3.3,15.9,5.2,24.3,5.6s16.7-1.3,24.9,0c13,2.1,22.8,13,32.5,20.8,11.6,9.4,24.2,15.2,39.5,14.5s35.5-9,51.7-17.8,6-4.9,2-7-10.7.2-14.3,2.1c-11.6,6.3-24.7,14.4-38.6,11.9-11.9-2.1-21.1-11.1-30.1-18.6s-19-14.6-31.1-16.2c-7.7-1.1-15.4-.2-23.1,0s-14.6-1.5-21.5-4.5-10.5,0-14.3,2.1-6.4,5.1-2,7h0Z"/>
    <path class="st0" d="M146.7,455.2c12.9-1.1,26.4-2.5,38.9,1.4,12.7,4,21.9,13.8,32.9,20.9,22.7,14.9,52.2,13,76.5,2.8,2.1-.9,8.4-3.5,5.8-6.5s-10.7-.3-13.2.7c-10,4.2-20.5,5.7-31.2,3.6s-21.3-9.3-30.8-16.6-19.6-13.1-31.9-15.4-25.7-1.3-38.5-.2-10.8,1.4-13.5,5.1,2.2,4.4,5,4.2h0Z"/>
    <path class="st0" d="M122.3,455.6c14.7,4.6,29.3,8.4,44.6,10.7s13.6,2.2,19.9,4.9,11.7,6.2,17.6,9.4c12.5,6.9,25.5,10.2,39.8,9.7s30.4-3.6,45.3-6.7c3.3-.7,9.7-3.9,8.7-8.1s-8.7-3.3-11.6-2.7c-12.4,2.7-25.5,5.5-38.3,5.6s-23.7-5.5-35.1-11.9c-11.7-6.6-23.5-10-36.7-12-14.3-2.1-28-6-41.8-10.3s-11.1.6-14.3,3.8-2.1,6.4,2.1,7.7h0Z"/>
    <path class="st0" d="M227.7,474c18.7,1.8,37.7.6,55.8-4.7s36.1-14.2,48.3-28.1c13.7-15.6,5.7-35.9-9.3-47.1s-36.4-18.3-54.9-24.5-24.1-7.8-36.4-6.1-21.5,7.8-31.1,14.4-4.8,8.2-.9,11.1,10.5,1.7,14.6-1.1,10.9-7.9,17.2-8.9,16.1,2,23.2,4.3c15.4,5,31.6,10.4,45.7,18.4,10.1,5.7,25.1,19.1,15.6,31.6-7.6,10-22.1,16.7-33.7,20.4-15.3,4.9-31.4,6.3-47.3,4.7-4.9-.5-11.1,1.5-13.2,6.4s1.8,8.7,6.4,9.1h0Z"/>
    <path class="st0" d="M163.6,421.7c15.1-11,30.4-22.1,47.8-29.2s33.6-7.7,50.6-2.9,33.6,14.8,48.5,25.5c6.7,4.8,12.9,9.6,10,18.8-2.2,7-9.2,11.8-15.2,15.4-16.2,9.7-35.7,12.9-54.1,16.1s-10.6,2.8-11.2,7.9,5.5,6.8,9.3,6.2c21.1-3.6,42.8-7.3,61.9-17.3s40.5-27.2,27.3-47.6c-2.5-3.8-6.4-6.6-10-9.3s-9.3-6.5-14-9.6c-9.4-6-19.2-11.3-29.6-15.5-21.2-8.4-44.1-10.4-66.2-4.5s-47.3,22-68.4,37.3-5.2,7.2-1.2,10,10.8,1.3,14.5-1.4h0Z"/>
    <path class="st0" d="M238.7,313.3c-.2,15.6,1.5,31.8,11.8,44.3s26.6,13.8,41.5,16.4,17,2.6,25.5,3.8,15.1,2.7,21.5,7.1,10.1,10.9,10.1,18.6-1,7.7-2.6,11.3-1.4,2.8-2.3,4c-.7.9-1.4,1.6-2.2,2.4-3.1,2.2-.9,1.7,6.6-1.3-4.8,0-10.3,1.1-14.3,3.8s-3,4.6,1.2,4.6c18.6,0,36.5-13.1,33.7-33.3s-22.6-23.4-37.7-25.5-20.5-3-30.7-4.9-17.6-2.6-24.8-7.9c-15.1-11.1-17.2-31.6-17-48.9s-20.2-.5-20.3,5.4h0Z"/>
    <path class="st0" d="M232.1,346.8c.3,9.5,1.1,19.8,9.6,25.8s10.6,4.2,16,5.3,13.1,2.7,19.6,4c12.5,2.6,24.9,5.5,37.1,8.9s10.3,2.2,13.8,5.8c3.6,3.7,4,9.7,4.7,14.6,1.1,8.3,21.5,3.4,20.3-5.4-1.5-11.3-5.3-19.8-16.4-24.3s-23-6.7-34.4-9.3-24.3-5.1-36.5-7.7-8.8-1.8-11-6.4-2.2-8.9-2.4-13.3-4.9-6.1-9.1-5.7-11.5,3-11.3,7.7h0Z"/>
    <path class="st0" d="M309.5,395.9c11,8.6,18.5,20.2,21.8,33.8,1.2,4.9,21.6-.3,20.3-5.4-3.5-14.1-11.6-26.5-23.1-35.5s-9.8-.3-13.1.9-9,3.8-5.9,6.2h0Z"/>
    <path class="st0" d="M360.8,453.2c-7.6-2.3-6.5-11.9-4.7-17.8s6.3-13.5,10.4-20,5.6-12.3,2.6-18.8-9.2-9.9-16.2-11-10.7.8-14.3,3.8-2.6,5.4,1.6,6c6.8,1,11.1,8.4,9.9,15s-7,12.1-10,17.9c-5.2,10.3-10.8,29.1,4.4,33.8s10.2,0,14.3-2.2,6.7-5.3,2.1-6.8h0Z"/>
    <path class="st0" d="M255.6,490.4c17.3,0,34.4-2.4,51.7-3.6s33.5,0,50,3c29.4,5.1,59.3,13.1,79.8,36.2s17.2,25.1,20.7,40.1,22.2,3,20.3-5.4c-6.4-28.2-25.8-52.6-51.4-65.9-15-7.8-31.5-12.2-48.1-15.5-17.8-3.6-35.8-6.2-54-6s-41,4.3-61.6,4.2-10.9,1.3-13.3,5.9,1.9,7.2,5.8,7.2h0Z"/>
    <path class="st0" d="M239.6,491.6c42.8-2.5,87.1-5.8,127.6,10.9s10.4,0,14.3-2.2,6.4-5,2.1-6.8c-43-17.8-90.3-14.7-135.7-12.1s-10.9,1.4-13.5,5.3,2.1,5.1,5.2,4.9h0Z"/>
    <path class="st0" d="M457.5,570c1.2-9.4.5-19.1-3.4-27.9s-11.7-15.7-20.2-21.4c-18.3-12.4-37.3-24.5-58.8-30.7-4.1,3.2-8.2,6.5-12.3,9.7,3.2-.2,7.8,5,10.4,6.7,5,3.2,10.9,4,16.2,6.6,10.9,5.3,20.7,14.6,29.9,22.3s8,6.8,11.1,11.1,5.1,10.6,5.8,16.5c1.7,13.6,2,27.4,3,41.1.4,5.5,20.8,1.5,20.3-5.4-1-14.4-1-29.4-3.3-43.6s-10.9-21.4-20.7-29.5c-9.9-8.2-20.5-18.1-32.7-22.8s-10.6-3.6-15.6-7.4-9.7-6.1-16-5.7-8.9,1.2-12.1,4-3.6,4.7-.2,5.7c20,5.7,37.6,16.6,54.7,28.1s15.4,10.4,19.6,18.9c4.1,8.3,5.3,17.7,4.2,26.8s19.4,3.2,20.2-2.9h0Z"/>
    <path class="st0" d="M401.7,506.4c5.4,3.8,9.8,8.4,13.5,13.9,5,7.3,24.4-.4,18.6-8.8s-10-12-16.4-16.5-10.8-1.5-14.5,1.3-5.3,7.2-1.2,10.1h0Z"/>
    <path class="st0" d="M195.5,473.8c22.4,25.4,59.7,19.7,89.8,19.7,34.2,0,68.4,5.1,101.1,15.1,4.7,1.4,10.1.5,14.3-2s6.7-6,1.9-7.5c-32.4-9.9-65.9-15.6-99.8-16.5s-66.7,8-88.5-16.6c-4.4-5-23.8,2.2-18.9,7.8h0Z"/>
    <path class="st0" d="M419.6,510.8c-29.4-14.5-59.8-27.3-92.7-30.8-4.6-.5-11.1,1.6-13.3,6s1.9,7.2,5.9,7.6c29.8,3.2,57.6,15.1,84.2,28.2,4.6,2.2,10.3,1.5,14.5-1.5s5.9-7.3,1.3-9.6h0Z"/>
    <path class="st0" d="M328.4,476.5c-2-8.1,11.5-10.4,17-9.9,10.5.8,20.2,7.3,30.3,10.1,10.6,2.9,21.8,3.7,32.7,4.6,11.8,1,23.6,1.5,35.4.5s10.8-2.6,11.5-7-5.9-4.8-8.8-4.5c-13.4,1.2-27-.3-40.3-1.6s-12.2-1.5-18.1-3.2c-6.3-1.7-12.2-4.8-18.3-7-12.2-4.4-25.2-4.8-37.6-.8-9.8,3.2-27.2,11.2-24.1,24.3s22.1,1.9,20.3-5.4h0Z"/>
    <path class="st0" d="M309.7,479.6c5.6-6.9,10.8-13.2,19.6-15.7,4.9-1.4,10.3-2.6,13.5-6.8s3.9-11,5.2-16.1c1.3-5-5.9-7.1-9.4-6.9-5.1.3-9.8,3.3-11.1,8.3s-.9,3.5-1.4,5.3-2.4,4.2.3,2.4l4.9-2.3c-7.8,2.9-15.5,4.4-22.5,9.3-6.3,4.4-11.3,10.4-16.1,16.2-3,3.7-1.7,8.4,2.7,10.1s11.2,0,14.3-3.8h0Z"/>
    <path class="st0" d="M336.4,432c-3.9,10.7,2.6,21.5,11.9,26.8s26,7.5,38.8,8.9c28.3,3.1,57.6,1.7,83.4-11.5s20.7-13.2,27.7-23.1c7.6-10.7,11.3-22.9,15.1-35.4s6.4-22.3,15.7-25.9,4.4-.7,6.5-.6,2.5,0,3.1.4c3,1.5.1-1.2,1.4,1.3s0,8.2,0,10.8,0,6.7-.6,10c-1.2,7.6-4.8,10.4-11.1,14.1s-12.6,7.8-18.2,12.8-9.1,9.8-13,15.6-6.3,10.1-11.5,12.6-6.1,4.6-2.2,6.5,10.6-.5,14.3-2.3c11.5-5.7,16.2-16.4,23.8-25.9s8.6-8.5,13.6-11.9,12-6.6,17-11.1c9.6-8.6,8.2-23.2,8.1-35s-5-6.7-10.4-7.4c-7.6-1-15.6-.3-23,1.9-12.6,3.6-22.6,11.2-28.4,23-5.7,11.4-7.5,24.3-12.7,35.9-10.4,23.4-32.1,35.2-57,36.6-16.3.9-33-.9-49-3.9-12.2-2.3-28.7-11.4-23.2-26.5,1.4-3.9-6.6-3.4-8.4-3.1-3.6.5-10.3,2.2-11.7,6.2h0Z"/>
    <path class="st0" d="M464.3,479.2c4.6,0,10.9-1.3,13.3-5.9s-1.8-7.3-5.9-7.3-10.9,1.3-13.3,5.9c-2.1,4.1,1.8,7.3,5.9,7.3h0Z"/>
    <path class="st0" d="M526.5,396.8c-1.2-6.3,2-11.7,5.7-16.7s6.6-9.5,11.1-12,7.5-2,10.3-.3c4.7,2.9,4.3,9.7,3,14.3-3.3,11.3-12.4,17.9-22,23.5s-9.5,5.4-14,8.4-10.8,6.4-10.3,12.5,7,2.4,8.6,2.2c3.5-.5,8.8-1.9,10.9-5.1,1.4-2.2,1.9-4.4-.2-6.3s-4.7-1.1-5.9-3c-3.1-4.8.7-12.8,3.8-16.5s8.9-7.3,13.6-10.4,11.3-7.7,15.8-12.9,1.1-2.5.1-3.6c-6.9-8.1-24.5-1.5-29.3,6.1s-3.2,9.7-4.7,14.5-2,5.7-3.3,8.4-1,2-1.5,2.9c-.4.6-.8,1.3-1.3,1.8-.7.8-.6.8.3,0l9.9,5.8c8.8-4.6,17.6-9.3,25.7-15.1s7.5-5.9,10.8-9.3,6.3-6.5,4.6-10.6c-2.5-6.2-22.5,0-20.3,5.4s-10.6,12-13.6,14c-6.2,4.1-12.9,7.5-19.4,10.9s-5.9,4.3-2.7,6.5,9.3.5,12.6-.7c8.1-2.8,12.6-8.8,15.9-16.3s3-7.9,4-12,.6-3,1.1-4.5c.3-1,.6-1.9,1.1-2.8-8.7-1.3-11.7-.5-8.7,2.4v-3.6c-8.3,9.8-21.7,13.7-29.8,24-3.6,4.6-5.9,10-5.8,15.9s.5,5.7,2.2,7.7,1.5,1.4,2.6,1.8c.8.4,1.6.7,2.5.8,1.5-.2,1.9,0,1.1.7l.8-2.6-.5.8,19.5-2.9c-.1-1.7,5.6-4.5,7.1-5.3,3-1.8,6.2-3.6,9.2-5.3,6.3-3.6,12.5-7.5,17.8-12.4,8.4-7.9,20.1-26.3,9-36.7-5.5-5.1-14.4-4.9-21.3-4.2s-17.3,3.4-24.5,8.5-11.1,10.4-15.3,16.3-7.8,12.8-6.3,20.4,21.5,1.1,20.3-5.4h0Z"/>
    <path class="st0" d="M438,483.7c29.4-1.1,59.6-7.5,82-27.8,9.4-8.6,16.5-19.4,20.1-31.6s2.3-12.7,6.4-17.8,9.9-8.5,15.3-11.9,5.1-7.2,1.2-9.9-10.6-1.1-14.5,1.4c-11.1,7-21.8,15.1-25.9,28.2-1.8,5.7-2.5,11.5-5,17s-5.4,9.9-9.3,14.2c-17.3,19.2-43.8,23.5-68.4,24.4-4.2.2-10.7,3.2-11.2,7.9s5.5,6.3,9.2,6.2h0Z"/>
    <path class="st0" d="M405.4,470.8c20.7,1.4,41.2,2.3,61.6-2.4,16.6-3.9,32.6-11.5,46-22,6.3-5,12.2-10.7,17.2-16.9s10.9-13.2,6.1-20-20.5-3.3-26.8,1.3-10.6,13-15.6,19.2c-10.5,13.1-23.6,26.2-40.3,30.7-2.5.7-10,3.2-9,7s9.1,2.2,11.3,1.5c27.5-7.4,48.1-26.9,64.2-49.6s1.8-2.6,2.8-3.9,1.5-1.6,1.5-1.9l-3.9,1.1c-3.4-.4-4.6.1-3.6,1.7-.2,1.1.7,2.7.4,4.1s-1.5,3.4-2.5,4.9c-3.7,5.3-8.2,10.3-13,14.7-9,8-19.5,14.5-31.1,18.1-16.9,5.2-35.1,3.8-52.5,2.6s-10.5.6-14.3,3.8-2.8,5.7,1.6,6h0Z"/>
    <path class="st0" d="M412.4,483.2c37.3,1.8,77.1-8.2,113.3,4.7,2.5.9,6.8,2.2,7.6,5.2s-3.9,5.7-5.5,8.1c-4.5,6.8-4.5,14.5-1.8,21.9s.7,3,1,4.5-.3.3.8-.3-1.7.1-1.6.1c-4.9.3-9.8.5-14.7.5-9.5,0-19.2-.5-28.6-1.9s-18.6-5.5-27.2-10.6-18.6-11.2-27.9-16.8-10.6-1.3-14.5,1.4-5.6,7.1-1.3,9.6c18.6,11.2,37.1,25.2,58.8,29.2s22.3,2.6,33.5,2.7c11.5,0,25.7,1.2,35.7-5.5s7.4-6.8,7.7-11.6-3.1-8.8-3.2-13.7c-.2-9.3,11.6-12.6,9.2-22.5-2.4-9.8-14.6-13.1-23.1-15.4-10.8-3-22.1-4.5-33.3-5-25.9-1.1-51.7,2.8-77.6,1.6-4.7-.2-11,1.4-13.3,6-2.1,4.3,1.9,7.5,6,7.7h0Z"/>
    <path class="st0" d="M459.9,594.4c7.5-4.7,14.7-5.9,23.5-5.6s21.5-1.1,30.1-7.9,9.7-13,14.9-19.3,12-8.7,20-11.1,18.3-7.5,23.4-16.4,7.3-17.5,8.2-26.8c1.7-16.4-.6-40.5-16.3-49.8s-19.2-5.3-28.8-4.5-21.9,5.1-32.3,1.5-10.2-.4-14.3,2-6.6,5.8-1.9,7.4c9.7,3.4,19.6,3.1,29.7,1.8s15.2-3,22.8-1.9c18,2.6,21.7,25.9,21.3,41-.2,9-2.2,18.2-5.9,26.5s-3.1,6.5-5.8,8.4-6.5,2.2-9.5,3.1c-8.9,2.6-17.5,6.8-24.3,13.2-5.8,5.4-9.2,12.1-13.9,18.3s-2.1,3-3.6,3.7c1-.5-1.2-.1-2.4-.1-5.3,0-10.6-.3-15.9.2-11.1,1.1-21.9,4.9-31.4,10.8-2.8,1.7-6,5.2-1.9,7.4s10.9.1,14.3-2h0Z"/>
    <path class="st0" d="M470.9,576.8c-.2-6.2.5-12.3,2.1-18.3s1.7-5.5,2.8-8.2,1.9-5.5,3.6-6.7l-6.8,3.3c-3.3.3-3.5.4-.7.3,1.3,0,2.6,0,3.9,0,1.9,0,3.9,0,5.8,0s4.5,0,6.8,0,1.9,0,2.9,0c-1.1-.5-1.3-.2-.8,1-.5,1.5,0,4,0,5.6,0,2.6-.1,5.1-.2,7.7s0,3.8-.1,5.8.6,5.3,0,6.3l5.5-3.8-.8.3,7.9-1.6c-7.9.1-16-.8-23.9-1.3-6.3-.4-20.1-.3-20.9,8.6s11.8,7.2,16.7,5.6c7.8-2.6,11.8-7.9,10.9-16.1-.7-6.6.7-11,4.9-16.1s1.5-.9,1.6-1.1c-.5,1.6-7.7-.3-8.6,1.7s-.6,2.6-1.2,3.9c-1.4,2.9-3.9,6-4.7,9.2-1.6,6.4,9,10,13.6,10.8,7.4,1.2,17.1-1.4,20.1-8.8,4.5-11,12.3-21.1,25.2-20.4l-4-6.9c1-.8-2,.4-2.5.5-1.9.5-3.9.9-5.8,1.4-4.8,1.5-9.5,3.5-13.8,6.2-7.6,4.8-13.2,11.1-17.3,19-2.1,4,6.9,4.1,8.6,3.9,4.5-.6,9.4-2.5,11.6-6.6,2.9-5.6,7.9-11.1,13.9-13.2s14.6-3.4,21.4-8.4,0-6.7-4-6.9c-11.9-.6-24.4,2.9-34.3,9.5-4.7,3.1-9,6.9-12.4,11.4s-2.7,3.9-3.8,6-1.3,2.6-1.9,4-1.7,3.6-.4,2.4l6.8-3.3-1.2.3,7.5-.5c-2-.2-3.7-.8-5.4-1.8s-1.6-1.8-.4-4,3.9-6.3,4.6-9.7c2.2-10.6-11.4-10.1-17.9-7.8s-14.1,7.5-17.9,14.5-2.7,6.1-2.9,9.5,0,4,.2,6c.2,1.3.3,2.7.3,4.1-.6,1.4-.4,1.6.4.5l7.7-2.6h2.7c1.1.4,2.1.9,3.2,1.3-.8-.6-1.2-.7-.9-1.6l-2.1,2.8.7-.6-12.1,4c7.7.4,15.3.9,23,1.3s17.5.8,21.4-6.3.9-6.9,1-10.1.2-7.7.2-11.5c.1-6.4,1.3-12.6-6.5-14.3-7-1.6-15.2-.4-22.4-.4s-16.7.6-21.6,7.3c-7.8,10.7-10.1,25.7-9.7,38.6s20.5,2,20.3-5.4h0Z"/>
    <path class="st0" d="M503.2,471.8c9.5-.2,19-.8,28.5-.6s10.6,11.4,12.4,17.5c5,17.1-5,33.8-7.2,50.5,6.7-.9,13.5-1.9,20.2-2.8,1.3-10.4,2.7-20.8,3.8-31.2s1.3-17.1-1.6-25.1c-6.3-17.5-23.7-20.1-40.2-20.8s-11.1,1.6-13.4,5.4,2.2,5.2,5.3,5.3c6.3.3,12.9.5,18.5,3.7s9.4,9.9,10.8,16.4c1.7,7.7.7,15.6-.2,23.4s-2.1,17.2-3.1,25.8,19.4,3.5,20.2-2.8c2.6-19.9,13.5-37.9,5.5-58-3.5-8.8-7.2-16.4-17.6-17.6-11-1.3-22.7,0-33.7.3s-11,1.4-13.4,5.4,2.1,5.4,5.3,5.3h0Z"/>
    <path class="st0" d="M506.5,545c4.3,0,11-1.4,13.4-5.5s-2-5.6-5.4-5.6-11,1.4-13.4,5.5,2,5.6,5.4,5.6h0Z"/>
    <path class="st0" d="M475.9,460.8c-5,5.5-12.4,7.5-19.6,8.2s-18.6.7-27.9,0c-9.5-.8-18.9-2.2-28.2-4.3s-17.1-3.9-24.4-8.3-10.5-2.2-14.6,1.1c-3.2,2.6-5.4,8.4-.9,11.1,9.9,6.1,21,8.9,32.2,11.5,11.5,2.6,23.1,4.2,34.9,4.9,23.1,1.3,49,1,65.7-17.4,3.3-3.6,1.5-8.8-2.8-10.5s-10.9,0-14.3,3.8h0Z"/>
    <path class="st0" d="M226.5,632.7c-1.2-3.9-2.5-7.9-2.7-12s0-4.2.7-6.1,1.6-2.1,1.5-2.7c0-1-.5.8-1.4.2,1.2.6,4,.7,5.3,1.1,3.7,1.1,7.2,2.4,11,3.2,17.2,3.7,31.1-6.3,47.3-9.8s28.6-1.1,41.6,4.5c6.2,2.6,12.2,6.3,16.7,11.5s3.9,5,4.9,8.1.8,2.7.9,4.1c0,.8,0,1.6,0,2.4-.2,1.4-.2,1.6-.1.7l4-2.9c5.7-2.1,5.6-.8,2.1-1.4s-2.1-.5-3.2-.7c-2.6-.7-5.2-1.5-7.8-2.3-5.5-1.8-10.9-3.8-16.4-5.4-10.7-3.2-21.9-5.5-33-6.3-24-1.7-45.8,4.8-68.1,13-10.2,3.8-20.3,7.6-29.9,12.9s-17.9,10.9-28.3,12.8-9.9.5-14.9,1,.4-.3.4.8-.4-1-.4-1.2c.2-1.3,0-3,0-4.3.5-9.4-2.9-15.5-13.1-16.3s-2.6-.2-2.8,0,1.5.7,1.5.7c.5-.2,2.1-3.2,2.6-3.8,3.4-3.5,7.4-6.4,11.4-9.1,7.5-5,15.9-8.9,24.4-11.7,20.7-6.8,42.3-9,63.8-12,11.6-1.6,23-3.8,34.6-5.7,11-1.8,22.4-3.2,33.5-1.1s19.3,7.1,28.8,11c10.5,4.3,21.1,6,32.4,5.8,21.5-.4,46-4.5,63.2-18.2,17.2-13.8,25.1-37,16.5-57.8-1.9-4.6-7.7-4.9-11.9-3.8s-10.3,4.7-8.4,9.2c5,12.1,4.4,26.5-3.3,37.4-6.8,9.5-17.9,14-29,16.5s-27.7,4.4-40.3.5c-14.5-4.5-27.3-12.6-42.6-14.8s-33.5.7-49.9,3.7c-15.6,2.8-31.4,4.6-47.1,6.9-29.6,4.4-60.6,11.3-84.5,30.5-5.2,4.2-11.3,8.9-13.8,15.4-2.8,7.5,1.8,13.4,9.5,14.4s2.8,0,4.2.2-.3-.4-.4-.6c.7,1.7.3,3.9.2,5.7-.3,5.1,0,10.3,4.6,13.5s16.2,2.6,23.2,2,17-2.7,25-6,13.1-6.8,19.6-10.3,14.1-6.9,21.4-9.7c14.1-5.5,28.8-11.4,44-13.1s30.5.7,45,5,14.8,5.2,22.4,7.3,17.1,4.4,24.6,0c12.9-7.6,5.2-25.5-3-33.7-20.7-20.5-55.4-24.6-82.4-17.1s-14,5.5-21.3,7.6c-6.7,2-11.9-.3-18.3-2.2-14.8-4.3-32.5,0-37,16.5s.1,14.8,2.2,21.7,22.9,3.3,20.3-5.4h0Z"/>
    <path class="st0" d="M140.2,643.7c2.1.1,4.5,0,6.2,1.6s1,3.7.2,6.1c-1.9,6,2.1,9.2,7.6,10.7,13.2,3.6,26.9-2.8,38.4-8.7,5.8-2.9,11.9-5.7,17.3-9.3s4.8-3.8,4.7-6.7-2.2-3.9-3.4-5.7c-4.2-6.8-3.3-16.9,2.8-22.3s2.7-5.3-.2-7.1-8.6-.7-12.1.6c-10.2,3.7-20.3,7.7-30.2,12.1s-18.8,8.5-25.7,16.2,4.5,8.8,9.7,7.4c-.9.2-.4,0,.2.2,1.5.6,2.7,1.6,3.6,2.9,1.9,2.5,2.3,5.5,1.8,8.5-1.4,8.1,13.5,4,16.6,2.2s8.6-4.9,13-7.4,9-4.3,10.4-8.7-1.9-5.3-4-8.4-1.7-5.7-3.7-8c-6.5-7.7-20.7-3-26.5,3.2s-6,7.5-4.9,11.2,7.2,5.3,10.5,6.6,10.3.9,14.4-1.8,6.3-6.6,1.6-8.5-5.7-1.5-7-3.2l.8,2.9c-.2-.8,0-1.5.5-2.2,2.6-3.7-.1-3.8-8.3-.2,0,.9,1.1,2.8,1.4,3.7s4.5,7.1,4.6,6.9l2-3.1c-1.8,1.8-5.6,3.2-8,4.6s-6.5,3.7-9.7,5.5c5.5.7,11,1.5,16.6,2.2,3-17.2-14.9-23.9-28.9-20.2l9.7,7.4c5.6-6.3,13.3-9.2,20.9-12.5s17.8-7.3,26.8-10.6c-4.1-2.2-8.2-4.3-12.3-6.5-5.4,4.8-8.9,11.5-9.3,18.7s2.8,12.7,6.7,19.1l-.8-2.9-.4,1,3.8-4.5c-5.3,3.8-11.8,6.6-17.6,9.4s-11.6,6.7-13.5,4,1.7-5.3,1.7-6.2c0-2.6-1.2-5.1-3-7.1-4.2-4.7-11.4-5.4-17.3-5.7s-11,1.5-13.3,5.7,2,6.3,5.6,6.5h0Z"/>
    <path class="st0" d="M249.6,605.8c11.1.2,21.7-2.2,32-6.1s7.4-7.1,4.6-11-9.5-3.5-13.9-1.9c-6.8,2.6-14,3.3-21.2,3.2-4.6,0-10.6,3.6-11.1,8.5s5.3,7.2,9.5,7.3h0Z"/>
    <path class="st0" d="M372.8,637.1c28.3-9.3,60.3-.9,86.8,10.2,13.9,5.8,27.8,12.5,40.6,20.4,10.8,6.6,21.6,16.6,20.6,30.4s-2.1,9.8-5.8,11.6-11,.7-15.4.5c-16.6-.8-33.3-1.7-49.9-2.5s-16.3-.8-24.5-1.2c-1.4,0-5.9.5-6.8-.3s-.7-1.9-.9-2.7c-.8-3.3-1.6-6.5-2.8-9.6-4.8-12-13.6-22.1-22.8-31-5.6-5.5-11.4-11.3-17.9-15.8-6.7-4.7-14.4-6.4-22.4-7.6-18.5-2.7-37.1-5.3-55.6-7.9-4.6-.7-10.7.9-14.3,3.8s-2.6,5,1.5,5.6c18.2,2.6,36.5,5.1,54.7,7.8,8.9,1.3,15.6,3.9,22.5,9.9,5.6,4.9,11.2,10,16.4,15.4s10.1,11.1,13.8,17.5,3.3,6.4,4.5,9.7,1.3,7.3,2.9,10.3,4.4,3.6,7.4,3.9c4.9.5,9.8.5,14.7.7,9.5.5,18.9.9,28.4,1.4,17.4.9,35.2,2.9,52.7,2.2,14.1-.5,33.4-5.1,38.6-20.2,4.8-13.9-4-27.5-14.9-35.6-12.9-9.6-28.6-16.7-43.2-23.2-37.1-16.5-77.3-23.1-116.5-10.2-2.3.7-8.3,3.7-5.8,6.8s10.5.3,13.2-.6h0Z"/>
    <path class="st0" d="M380.5,623.8c1.4-7.7-3.1-14.1-10.6-15.8l-16.7,7.9c16.8,3.1,34,3.9,51,1.8,14.2-1.7,29.9-4.6,41.4-13.8s9.6-8.5,8.6-13c-1.6-6.8-18.1-1.2-21.4.4-6.5,3-10.8,8.8-16.8,12.5s-10.2,4.3-16.2,4.7c-15.3,1-38.8,3.3-45.4,20-1.1,2.7,4.5,2.4,5.6,2.3,21.2-1.6,42.2-4.5,63.1,0s41.6,10.6,62,17c4.6,1.4,14.3-1.1,17.5-4.7,8.1-9.2-7.1-13.3-13.4-15.4-10.8-3.6-21.6-7.5-32.6-10.5-23.2-6.3-47.5-5.1-71.3-5.3-4.2,0-14.6,1.2-16.6,5.9-4.5,10.9,23.5,4.7,28,4.1s13.2-2.1,17.2-6.7.6-8.4,2.9-12.3l-19.6,5.2c12.7,5.4,25.9,9.5,39.4,12.2s15.7-.8,18.3-5.7-2.9-5.6-3.6-9.3,4.7-9.9,7-12.6c4.9-5.6,11.8-11.6,19.2-13.3s10.9-2,11.9-5.5-6.8-2.2-8.1-2c-14.3,3.1-28.4,9.1-38,20.6s-7.9,11.6-3,17.9,9.2,10.1,15.3,12.6,14.9,2.3,22.3,1.1,12.9-3.4,19.5-1.2c13.1,4.3,22.7,18.1,30.4,28.8s9,14.2,10.7,22.6c1.7,8.8,1.2,17.8.6,26.6s19.9.6,20.3-5.4c.5-8.8,1-17.9-.6-26.6s-6-16.3-11.2-23.3c-8.8-11.9-18.8-25.8-33.5-30.5s-17.3-1.3-25.7.3-6.8,1.7-10.3,1.4-8.2-2.9-11.4-5.7-6.3-5.4-7.8-8.7c-2.2-4.7.8-9.2,3.8-12.7s9.1-9.2,14.9-10.4l3.8-7.5c-13.7,3-26.8,8.4-37.2,18-4.3,4-8.2,8.7-11,13.7s-2.9,5.1-1.9,7.7,5.1,4.2,3.7,6.8l18.3-5.7c-12.7-2.5-25.1-6.2-37-11.3s-16.7.3-19.6,5.2-1.2,3.5-1.3,5.4.6,4.7-.4,5.2c2.3-.9,4.6-1.9,6.9-2.8-1.4.4-5.5.7-7.8,1s-3.1.6-4.4.6-2,.5-1.1-1.6c-5.5,2-11.1,3.9-16.6,5.9,20.7.2,42.1-1.2,62.4,3.5,9.6,2.3,19,5.5,28.3,8.6s26.3,6.8,21.4,12.3c5.8-1.6,11.7-3.1,17.5-4.7-21.6-6.8-43.6-13.4-65.8-17.8-22.2-4.4-44.8-1.2-67.2.4l5.6,2.3c2.1-5.3,4.9-7.4,10.3-7.9,8-.7,15.8-1.1,23.6-3s14.1-4.5,20.5-8.1,5.6-3.4,8.2-5.4,2.9-2.4,4.3-3.6,3.8-3,2.1-2.4l-7.9,1.8c-2.2.2-1.4-.3-2.2,1.7s-1.2,2.4-1.9,3.4c-1.5,2-3.4,3.7-5.6,4.9-3.5,1.9-7.4,2.5-11.3,3.1-14.8,2.1-30,1.4-44.7-1.3s-10,.6-14.2,2.6-7,4.2-2.5,5.3,8.2,6.6,7.3,11.5,19.1,1.4,20-3.6h0Z"/>
    <path class="st0" d="M477.2,739c18.1,2.9,35.3-5.6,53.3-3.2s7.9,1.7,11.9,2.5,9.4.1,13.9-1.1c8.9-2.5,13.7-7.1,16-16,8.4-32.5-10.1-64.4-35.7-83.5s-15.2-9.7-23.8-12.2-18.2-1.6-25.4-7l-18,7.1c5.5,1.5,10.6,4.5,14.7,8.5s6.6,10.1,10.3,15.1,7.7,7,12,10.1c4.5,3.2,8.6,7,12.1,11.3,13.5,16.4,19.6,39.1,15.1,59.9-.4.6-.2,1.1.4,1.5,5,3.3,13.6.2,18.5-2s6.4-6,6.9-11.6c.5-5.5.8-11.1-.4-16.6s-3.9-10.4-6.6-15.2c-5.7-10.1-9.7-20.8-14.9-31.1-4.6-9.1-11-17.6-20.5-22s-9.4.1-13,1.4-9.1,4-6.2,5.3c16.5,7.7,21.2,26,28.5,41.2,3.7,7.6,8.9,14.6,11.5,22.6,1.3,3.9,1.7,7.8,1.7,11.9s.6,11.8-2,13.9l5.7-2.9-1.1.4c3.4-.6,6.7-1.3,10.1-1.9h-1.1c1,.1,2,.3,2.9.5l-.9-.6.4,1.5c4.8-22.1-.9-45.4-15.7-62.7s-7.4-7.8-11.7-11c-5.3-3.9-10.2-6.8-13.6-12.7-6.3-11-13.9-18.6-26.4-22.1s-9.5.8-13,2.3-7.4,3-5,4.9c4.9,3.7,10.9,4.7,16.8,5.5,6.7,1,12.9,2.5,19,5.5,12,5.8,22.7,14.8,31.2,25,8.4,10.2,14.8,22.3,17.5,35.3,1.4,6.6,1.8,13.3,1.2,20s-1.3,15.5-6,18l7-2.7c1.7-.5,7.6,0,2.9-1.1s-2.8-.7-4.2-1.1c-2.6-.6-5.3-1-8-1.3-5.8-.7-11.6-.7-17.4-.4-11.3.7-22.8,5.6-34.1,3.7-4.6-.7-10,.8-14.1,2.7s-7.1,4.1-2.6,4.8h0Z"/>
    <path class="st0" d="M363.5,760.3c-1.6-12.5,4.4-25.4,14.7-32.6s23.5-5.9,35.1-3.4,30,9.3,44.3,15.6c6.2,2.7,12.4,5.4,18.3,8.7,5.6,3.1,7.8,9.1.8,11.9-12.5,5-21.3,13.7-31.3,22.3s-6.9,6.1-11.3,6.8c-7.3,1.2-15.6-.8-22.7-2.4-12.6-2.8-28-6.6-37.8-15.5-10.7-9.7-8.9-27.5-7.6-40.4.9-8.7,3.7-17.4,3.7-26.1s-3.4-15.5-7.3-22.3c-7.2-12.7-17.3-23.5-29.4-31.5s-9.7-.2-13.1,1.1-9.1,3.9-6,5.9c13.2,8.7,23.9,20.6,30.8,34.9,4.1,8.5,5.4,16.3,3.7,25.7-1.6,8.8-2.9,17.5-3.3,26.4s-.5,16.3,2.6,23.7c3,7.3,9.1,12.2,16,15.6,15,7.4,32.1,12,48.8,13.4s35.1-3.5,49.1-14.8c5.6-4.5,10.5-9.9,16.3-14.2s13.7-5.7,19.3-10.6c15.7-13.6-15.1-23.2-24-27-16.1-7-32.9-13.8-50.4-16.4-19.5-2.9-40.3,0-57.4,10.2-14.1,8.4-24.3,23.7-22.2,40.5.5,4.1,21,0,20.3-5.4h0Z"/>
    <path class="st0" d="M352.7,677.1c7,27.6-5.4,54.6-21.7,76.3s-18,22.5-21.5,36.5c-3.1,12.1-1.5,25.1,8.2,33.8,10.4,9.4,25.6,7.7,37.5,2.5s10.4-6,15.1-9.9,7.6-7.2,12.4-8.3c12.6-2.7,26.9,2.7,39.3,4.9s31.4,3.2,44.9-5.3c6.3-4,11.1-9.9,17.7-13.5s9.9-3.8,15.4-3.6c14.1.5,30.4,11.5,26.5,27.5s18.8,1.4,20-3.6c3.1-12.7-4.9-24-16.5-28.7-12.7-5.2-27.5-3.9-40.4-.5-7.2,1.9-14.1,4.7-20.5,8.4-5.7,3.3-10.3,7.7-15.4,11.8l-1.2,1c-1.8,1-1.4,1.1,1,.2,0,0-3.8,0-3.7,0-3.7-.2-7.4-.8-11.1-1.4-8-1.4-16-3.5-24.1-4.6-14.3-2-28.8-1.1-42.3,4.2s-11.8,6-17,10.3c-2.2,1.8-4.4,3.8-6.7,5.5s-1.8,1.2-2.6,1.8c-2.6,2,1.5-.9,1.8-.2,0-.1-3.5-.8-3.8-.9-1.3-.5-2.6-1.2-3.7-2-2.6-1.6-4.9-3.7-6.7-6.2-4.1-5.6-5.6-12.6-5.2-19.4.8-14.6,9.9-27.1,18.4-38.3,18.2-24,34.2-52.7,26.3-83.9-1.1-4.3-21.4.9-20.3,5.4h0Z"/>
    <path class="st0" d="M487.8,743.3c7.2,1.1,14.2-.2,21.3-.6s11.8,2.4,14.3,8.6c5.1,12.4-1.5,26.9,5.1,38.8s24.2,13.9,28.8,26.7,1.3,5.5.4,8.2-1.4,3-4.6,2.9-6.8-1.4-8.7-4.2-1.4-2.7-1.4-4.1c0-1,0-2,.6-2.9-10.7,0-13.9,1-9.6,2.7l-1.9-1.4c0,5.9,2.5,10.2,8.5,11.2s16.5-1.4,20.6-6.8c7.8-10.4-10.3-14.9-11.6-23.3l-19.7,6.3c3.6,2,6.8,4.6,8.9,8.2s2.1,6.3,3,9.6c2.7,9.4,15.4,5.9,21.7,2.7s5.8-3.2,3.6-5.3c-8.1-7.7-15.7-16-22.7-24.7-6-7.5-11.9-15.3-19.9-20.8s-19.6-8.3-30.2-5.5c-4.9,1.3-9.5,3.5-13.5,6.5s-3.6,3-5.4,4.5-1.1.8-1.6,1.3c-2.5,2.1-1.4-.5,3.3-.5l5.9,1.8c0-4.8,3.4-8.3,7.2-10.9s10.6-6.9,15.9-10.3,10.7-5.5,11.5-10.5-5.7-8.2-9.2-10.5c-19.5-12.7-39.9-24.4-63.5-26.9l-10.8,8.9c11.1-1.2,22.2,5,33,7s22.7,2.2,34.1.7,22.9-4.9,33.5-9.7c8.6-3.9,19.1-9.3,20-19.7.4-4.4-14.7.2-16.1,1-18.9,10.4-39.4,17.1-61,19.1l-.7,7.2c3.3-1.1,6.6-2.2,9.9-3.3s10.6-5.7,4.6-6.9-4.8-.9-7.2-1.4l-.4,4.8,1-.8-6.9,3c-4.9,1.6-4.6.3-1,2.1s3,1.5,4.4,2.4c2.4,1.4,4.7,2.9,6.9,4.6,5.9,4.4,9.7,7.1,17.5,6,7.7-1.1,14.6-4.7,21.5-8.2s13-6.8,19.4-10.4l-15.2-1.2c-2.5,3-5.1,5.8-7.9,8.5s-2.6,2.4-4,3.6-5.5,3.2-2.2,2l10.1-1.7c-1.7-.1-.8-6.2-.7-7,1.2-6.1-17.9-.7-20.1,3.3-5.6,10.6-3.1,22.5-3,33.9s0,2.7-.2,4-1.2,2.5-1.2,3.2c.2,1.8,2-1.7,3.4-1-.3-.1-2.4.2-2.5.3-6.5.7-12.8,1.9-18.7,4.9-1.7.8-5.6,3.1-3.6,5.3s8.1.6,10.5,0c9.4-2.2,19.1-4.1,27.8,1.1s8.4.7,11.8-.4,9-3,7.8-5.9c-4.6-11.2-7.4-22.8-8.4-34.8-.4-4.7-19.4-.1-20.2,4.4s-1.4,8.3-2,12.5-.3,8.5-1.8,10.3l5.6-3.3-1,.4,7.9-1.7c-4.1.2-8-.3-12.1.3s-10.1,2.3-14.8,4.4c-7.6,3.4-13.9,8.5-18.1,15.7s7.2,2.7,8.3,2.5c4-.6,9.6-2.1,11.8-5.9s5.2-7.6,9-8.4,2.2.2,2.8.2c3.3.2,6.5,0,9.8-.8,5.3-1.4,10.5-3.7,11.5-9.4s2.2-13.5,3.3-20.2c-6.7,1.5-13.5,2.9-20.2,4.4,1,12,3.8,23.7,8.4,34.8l19.7-6.3c-14.8-8.8-33-4.9-48.8-1.2l6.9,5.3c-3.7,1.8.2.4,2,.2,3.4-.4,6.7-.9,10-1.9,6-1.7,13.3-5.1,15-11.7s.3-12.5,0-18.4,0-13.8,3.4-20.2c-6.7,1.1-13.4,2.2-20.1,3.3-.7,3.7-1.4,8,1.9,10.7s12,1.6,16.7-.1c9.7-3.6,18-12.6,24.5-20.4,2.1-2.5-.3-3.6-2.8-3.9-4-.5-9,.8-12.4,2.7-6.1,3.4-12.3,6.8-18.6,9.9s-3.4,1.7-5.1,2.6c-.9.4-1.7.8-2.6,1.3-2.4,1.1-1.1.8,3.9-1-.2-1.3-6-4.7-7-5.4-4.6-3.2-10-6.7-15.5-8.2s-15.9,0-21.6,4.3-3.9,4.1-.4,4.8,4.8.9,7.2,1.4l4.6-6.9c-3.3,1.1-6.6,2.2-9.9,3.3s-6.6,2.6-6.5,4.9,4,2.4,5.8,2.3c28.5-2.7,56.3-10.8,81.5-24.6l-16.1,1c-.7,7.4-10.5,10.6-16.3,12.6s-14.8,3.5-22.3,3.4-16.7-1.7-24.8-4.3-18.5-5.5-28.3-4.4-9.5,1.4-12.8,4.4-1.4,4.1,2.1,4.5c21.8,2.3,40.9,14.4,58.9,26.1s4.3,2.4,5.7,4.2,0,3.6-2,4.9c-5,3.3-10.1,6.5-15.1,9.8-7.5,4.9-16.6,10.7-16.5,20.7s4.9,1.8,5.9,1.8c9.8-.1,18.1-4.6,25.4-10.8,1.1-1,3.3-2.1,4.2-3.3,1.2-.8.6-.6-1.9.4-2.7.4-3.2.7-1.6.9.7.4,2.1.5,2.9.8,4.3,1.4,8,3.9,11.4,6.7,6.6,5.6,11.9,12.6,17.3,19.3,6.7,8.3,14,16.2,21.7,23.6l3.6-5.3-.9.5,10.2-2.7c3.2-.1,2.1.2,1.3-1.8s-.4-2.2-.7-3.3c-.5-2.4-1.3-4.7-2.5-6.9-2.4-4.2-5.8-7.6-10.1-9.9s-8.3-.7-11.8.4-8.4,2.7-7.8,5.9c.8,4.8,4.6,7.6,8.3,10.4s3.6,2.6,4.5,4.6.7,1.8.6,2.7c0,2.1-2,2.5,1.3.8l7.7-2.5c3.9-.8,1.8-1.1,1.1-3.6s-.4-2.9-.3-4.3c-.4-.8-1-1.3-1.9-1.4-7.2-3.3-19.4.4-24.8,5.9s-3,12.9,2.8,16.5c7.3,4.5,17.3,3.8,25.3,2.2s19.6-4.7,23.6-12.9c7.6-15.5-12.9-24.2-22.2-31.4-14.5-11.2-5.8-28.7-10.6-43.6s-8.8-12.6-16.9-13.8c-8.9-1.3-17.8,1.7-26.7.4s-10.7,1.2-14.3,3.8-2.6,4.5,1.4,5.1h0Z"/>
    <path class="st0" d="M365.3,724.5c5.5-2.3,11-4.7,16.4-7s5.3-2.1,7.8-3.3.8-.2-.5,0c-2.6.4-1.3-.4-.3,1.2,4.8-2.4,9.6-4.9,14.4-7.3-5.1.3-10.2.6-15.4.9s-2.6.1-3.8.2c-2.3.1-2.6.1-.7,0,1.2.4,1.5.2,1.1-.6.3-1.3-1.5-4.5-2-5.8-3-7.9-7.4-15.1-12.5-21.8-10.5-14.1-24-25.5-37.4-36.7l-8.5,7.3c-3.7,0-4.2.4-1.7,1,1.1.4,2.1.9,3.1,1.5,1.8.9,3.6,2,5.4,3,3.6,2.1,7.2,4.3,10.7,6.6,6.7,4.5,13,9.5,18.4,15.5,5.7,6.2,9.3,13,12.5,20.7,3.8,9.3,9.8,12.2,19.7,11.1s14.1-3.6,11.9-7c-24.6-37.4-66.7-55.3-108.3-67.2-4.5-1.3-10.2.3-14.2,2.4s-6.8,4.8-2.3,6.1c39.7,11.3,80.9,28.4,104.5,64.2,4-2.3,7.9-4.7,11.9-7l2.5-.3-1.2-.8c-.6-.9-1.6-1.5-2.2-2.5-1.2-1.8-1.8-3.9-2.6-5.9-1.5-3.8-3.3-7.5-5.5-11-4.5-7-10.2-13.1-16.6-18.4s-13.6-9.9-20.8-14-16.6-8.1-27.2-5.4-12.2,4.2-8.5,7.3c14.4,12.1,29.3,24.5,39.9,40.3,2.5,3.7,4.7,7.5,6.5,11.5s2.6,8.9,4.9,12.4,7.7,2.8,11.6,2.6c6.1-.4,12.2-.7,18.3-1.1s16.8-3.2,14.4-7.3c-4.5-7.6-16.2-5-23.1-2.8s-18.7,7.7-27.9,11.7-8.4,3.4-5.9,6.5,10.8.3,13.2-.7h0Z"/>
    <path class="st0" d="M355.3,815.1c-12.8-12.9-14.6-34.5-3.6-49.1-6.5.4-13,.7-19.6,1.1-1.8,10.6-3.9,22.3.1,32.7,3.4,8.8,9.8,14.7,18.8,17.4s17.2-1.7,16.4-8.2-1.7-13.6-2.6-20.4-.7-11.2-5.3-14.5-8.2-2-12.1-.6-8.4,3.5-7.5,7.3c1.4,5.6,4,10.9,7.6,15.4s11.2,10.3,11.6,9.6l3.2-2.8-1,.5,16.4,1.7c.5-6.9,0-13.7-2-20.3l-20.3,5.4c6,13.4,21.2,15,34.2,15.6s18.7-4.3,13.4-9.7-9.6-7-15.7-7.8-9.7.3-13.4,3.2-4.9,5.5-.9,7.2c11.4,4.7,23.4,8.3,35.6,10.2s25.4,3.2,37.6.7c6.3-1.3,12.3-3.6,17.6-7.4s8.1-7.2,12.5-10.3c7.6-5.3,16.7-6.9,25.7-5.3l10.2-11.2c-15.1-.9-30.3.5-45,3.9-7.2,1.7-14.3,4.1-21.2,6.7s-11.8,5.1-17.9,4.3l-10.2,11.2c16.2.5,31.6-.7,46-8.9s11.2-7.6,16.8-11.4,9.7-6.8,15.4-6.8,11-1.4,13.4-5.5-2-5.9-5.5-5.9c-15.8-.1-29,7.2-41.4,16.2s-10.2,7.8-16.1,9.8-13.9,1.4-20.6,1.2-9.9,1.4-12.7,4.8-1.3,5.9,2.6,6.4c16.5,2.2,30.1-4.8,45.3-9.5s28.7-5.9,43.4-5,10-1.5,12.7-4.8,1.3-5.7-2.6-6.4c-11.4-2-23.1-1.2-34.1,2.4s-19.7,10.1-28.7,17.7c-7.1,6-18.4,3.8-27,2.7-12.2-1.6-24.1-4.8-35.5-9.6l-14.3,10.4c3.9.5,6.5,2,9.3,4.8l13.4-9.7c-8.2-.3-18-1-21.8-9.6-3-6.6-22.3-1.5-20.3,5.4s2.5,11.5,2,17.5,13.1,3.4,16.4,1.7,6.8-5.4,5.2-9.5-4.4-4.2-6.8-6c-6.3-4.5-10.4-11.2-12.2-18.7-6.5,2.2-13,4.4-19.6,6.7,4,2.9,3.5,9.6,4.1,14s1.5,12.3,2.3,18.4l16.4-8.2c-6.2-1.9-10.2-8.8-11.8-14.6-2.5-8.9-.8-18.2.8-27.1s-4.8-4.5-7.5-4.4c-4.3.2-9.4,1.8-12.1,5.4-12.8,17-11.5,42.2,3.6,57.4s24.2-2.6,18.8-7.9h0Z"/>
    <path class="st0" d="M54.3,735.4c-4-15.1,3.6-29.8,14.2-40.2s24.6-16.7,39.8-17.3c8.9-.4,17.8,0,26.8-.6s17.5-2.1,26.1-4c16.5-3.6,32.4-9.3,48.4-14.3,8.7-2.7,17.4-5.3,26.4-7.1s19.9-2.4,29.8-4,10.9-2.2,11.8-6-6.4-3.2-8.4-2.9c-9.3,1.4-18.8,1.9-28.1,3.6-9.3,1.7-18.5,4-27.6,6.8-17.7,5.2-35,11.8-53,15.8-18.8,4.1-37.9,1.6-56.7,4.4-18.4,2.8-36.2,10.8-50.2,23-13.5,11.8-24.5,29.7-19.5,48.1,1.5,5.5,21.8.1,20.3-5.4h0Z"/>
    <path class="st0" d="M347.6,661.6c-37.8-21.1-81.1-30.4-123.9-21.4l-.9,7.5c11.7-3.2,23.7-4.6,35.7-5.5s24.7-3.5,35.6,1.2,18.7,12.7,26.6,19.7c8.4,7.5,15.9,15.9,20.9,26.1s22.1-1.7,20.3-5.4c-5.4-11-13.7-20.1-22.8-28.2-9.3-8.3-19.6-18-31.8-21.5-13.1-3.8-27.8-1.6-41.2-.4-15.3,1.3-30.4,3.3-45.2,7.3s-9.2,2.5-9.2,5.7,6.6,2.2,8.3,1.8c37.4-7.9,75.5,2,108.4,20.3,3.7,2.1,9.4.5,13.1-.9s9.3-4.3,5.9-6.1h0Z"/>
    <path class="st0" d="M14.6,618.7c10.2,31.4,48.6,32.6,75.8,33.1s35.2.4,52.1-5.4c7.2-2.5,14.1-6,20.1-10.7s5.8-4.7,6.7-8.3,1.1-5.5,4-8.1,2.5-5.3-1.7-6.3c-13.1-3.1-24,7.2-35.8,10.9s-23,4.3-34.6,4.7-24.3,1-36.1-.8c-12-1.9-21.8-8-28.7-18s-16.6,0-18.8,3.9h.6c-2.4,1.2-6.4,5.2-2,7,29.6,11.9,60.3,23.2,92.8,18.7,16.4-2.3,30.2-8.7,44-17.5,12-7.6,24.6-10.2,38.6-7.5,4.6.9,10.8-.8,14.3-3.8s2.5-5.5-1.7-6.3c-15.6-2.9-31.7-1.1-46.6,4.3-13.6,4.9-24.3,15.7-38.3,19.4-29.3,7.7-60.1-5.6-86.9-16.4l-2,7c2.3-1.2,4.5-2.8,5.8-5.1-6.3,1.3-12.5,2.6-18.8,3.9,15.8,22.9,44.6,22.1,69.5,21.7s25.9-.8,38.6-3.3c6.8-1.3,13.5-3.1,20.1-5.5s6.8-2.8,10.1-4.4,3-1.6,4.5-2.4l1.5-.9c2-1,1-.8-2.9.5l-1.7-6.3c-2.3,2.1-4.6,4.1-6.2,6.8s-1,5-2.2,7.2c-2,4-8.7,6.7-12.8,8-12.5,4.1-26.5,2.7-39.4,2.5-22.8-.4-53.4-2.1-61.9-28.1-2-6.3-22.2-.6-20.3,5.4h0Z"/>
    <path class="st0" d="M181.4,636.2c4.8,0,10.3-1.1,14.3-3.8s3-4.5-1.2-4.5-10.3,1.1-14.3,3.8-3,4.5,1.2,4.5h0Z"/>
    <path class="st0" d="M45.7,628.5c-5.4-2.1-10.6-6.7-12.7-12.1s-.6-2.1-.8-3.2c0-.5,0-1,.2-1.4.9-2.5-1.4-1.6-6.8,2.7.1.4,1.3.8,1.5,1.1.9,1.2,2,2.3,2.9,3.4,9,11.2,20.4,18.7,34.6,21.8s30.8,2.6,46.2,2.6c16.3,0,32.4-1.1,48.3-4.7,3.8-.8,9.6-4.5,8.4-9.1s-8.3-4.5-11.9-3.7c-17.8,3.9-36.2,3.8-54.3,3.6-16-.2-32.9-.4-45.7-11.4-5.9-5-9.3-12.8-16.7-15.8s-18.2-1.7-23.8,4.9c-11.6,13.6,6.9,29.8,18.6,34.3,4.5,1.8,11.2-.3,14.3-3.8s1.8-7.4-2.4-9.1h0Z"/>
    <path class="st0" d="M30.1,735.4c11.7-8.7,15.1,1.1,10.4-3.9s-1.7-2.3-2.4-3.5c-1-1.8-1.8-3.8-2.4-5.7-2.4-8.2,1.5-15.7,6.5-22.1,9-11.6,22.5-20.8,35.4-27.5,13.5-7.1,29.6-7.2,44.5-7s38.7-.6,43.5-17.9-18.5-2.4-20.1,3.3-.8,2.6-1.6,3.8-2,1.5-2.2,2c.7-1.9,2.7-.2.9-.4s-1.8,0-2.6.1c-1.8,0-3.7,0-5.5,0-7.6-.1-15.1-.1-22.7.4-15.9,1.2-31.9,4.6-46.2,12s-24.1,14.3-34.1,23.6-20.3,22-16,35.5,3.7,9.4,7.4,12c6.4,4.6,17.3,1.1,23-3.1s2.5-4.8-1.4-5.3-10.7,1.1-14.3,3.8h0Z"/>
    <path class="st0" d="M45.6,715.7c3-15.1,13.4-27.6,27.1-34.3s34.2-7,51.6-9.3c8.9-1.2,20.8-3.7,26.9-11,4.4-5.4,3.1-13.2-1.3-18.2s-14-7.4-21.4-8-20.7.2-30.4,3.9c-1.7.6-6,2.3-6.4,4.5s1.7,2.8,3.6,2.9c9.3.4,18.5,1.4,27.5,3.5s3.8.7,5.3,1.7c.9.5,1.6,1.2,2,2,.3.6.5,1.2.5,1.9,0,2.5,1.8,2.1,5.7-1.5-1.3.2-2.6.5-3.9.7-2.6.5-5.2,1-7.8,1.5s-10.9,2.1-11.8,5.9,6.5,3,8.3,2.7c6.6-1.3,38.9-5.6,28.1-18.7s-12.5-5.4-18.2-6.5c-7.5-1.4-15.1-2.2-22.7-2.5l-2.8,7.4c9.6-3.7,31.1,1.3,28.1,15.2s-1.8,3.2-4.8,3.6-7.9.6-11.9.9c-8.1.6-16.3,1.5-24.3,3.1-28,5.5-60.9,20.5-67,51.6s19,2.3,20.1-3.3h0Z"/>
    <path class="st0" d="M36.4,714.2c0-7.1-2.3-13.7-3.1-20.6s-.3-6.6.8-9.7,1.8-2.5,2-3.4c1.8-1.9-.2-1.7-6.2.9.6.4.9.8,1.2,1.4.6,2.9.9,4.6-.2,7.7s-3.2,6.1-4.5,9.3c-2.7,6.4-3.7,13-3.8,19.9s20.2,1.8,20.3-5.4,1.2-10.7,3.1-15.7,4.9-8.6,6-13.4c2.5-10.7-6.9-15.2-16.2-13.8s-20.2,7.4-22.3,17.8,2.9,20.3,2.8,30.5,20.3,1.8,20.3-5.4h0Z"/>
    <path class="st0" d="M19.7,735.8c11.3,10.2,27.2,9.1,41.3,7.1,7.7-1.1,15.4-2,23.2-2s16.2-.4,22.9,2.1,1.9.8,2.4,1.7c1,1.6-.2,2.3,0,3.6s-.1-.5,1.2-.4c-.4,0-.9.2-1.4.2-2-.1-4.2.4-6.2.6-8.2.5-16.8-.9-24.7,1.8s-12.2,7.7-16.2,14c-2.3,3.8-4.9,10.6-9.2,12.7s-4.5.7-6.5.9c-3.8.4-7.7,1-11.4,2-6.1,1.7-14.7,5.3-15.7,12.5s4.6,10.9,10,12.6,14.4,1.5,21.5,2.2,15.9,2.4,23.6,4.4,15,5,22.9,6c15.5,1.9,31-3,40.1-16.2s3.8-6.3,6.2-9.1,2.6-2.7,2.7-2.7c0,0-3.7.8-3.8.7.1.3,1.4.6,1.8.8,4.8,2.9,7,10.1,6.2,15.4s-.8,2.7-1.1,4.1c0-.1-1,2.8,0,.7,1-.5,1-.5.1-.2-.6.2-1.2.5-1.8.8-3.5,1.8-6.6,4.4-6.2,8.6.6,6.9,5.4,13.7,10.5,18s18.1,1.2,19.6-5.2,3.1-15.2,4-22.9.5-16,2.7-23.5c3.2-11.1,15.1-18.4,25.1-22.9,23-10.4,48.8-13.7,70.2-27.9,3.7-2.5,12.6-7.2,10.9-13s-12-6-16.7-6.4c-16-1.6-32.1,0-48,1.6-15.5,1.5-30.9,2.9-46.4.4s-31.8-5.4-48.3-4.9-19,1.1-28.4,2.3-16.8,4-24.3,2.1-10.9-8.2-8.5-15.1,10.5-12.5,15.4-18.4-2.7-5.7-5.5-5.8c-4.8-.1-10.2,1.7-13.4,5.5-7.7,9.1-23.6,20.2-16.1,34.1,7.2,13.4,25.4,11.9,38.1,10.1,16-2.3,32-4.3,48.2-3.5,16.4.8,32.2,5.6,48.6,6.2s32-1.6,47.9-3,15.5-1.2,23.3-.9,7.1.3,10.6.9,2.4.7,3.2.6-.3-.6.3-1.1c-.8.6-1.5,1.2-2.3,1.8-20,14.2-46.1,16.7-68,26.9-12.8,6-27.3,14.5-33.9,27.5-3.8,7.6-3.6,16.1-4.3,24.3-.9,9.3-2.4,18.4-4.5,27.5,6.5-1.7,13-3.5,19.6-5.2-2.5-2.1-4.7-4.4-6.3-7.3s-3.2-6-2.6-8.4l-2,2.9c-3.6,3.1.7,0,1.7-.6s2.6-1.8,3.8-2.9c2.1-2,3.6-4.5,4.6-7.3,1.8-5.3,1.3-11.6-1.2-16.6-6.1-12.5-20.3-13.7-32-8.2-5.7,2.7-10.2,7-13.8,12.1s-5.4,11.1-10.1,12.3-12.7-1.9-17.8-3.5c-8-2.4-16-4.5-24.2-5.8s-15.2-1.8-22.9-2.2-4.2,0-5.9-1.2-1.7-1.7-2.1-2.8c-.3-.7-.4-1.4-.4-2.1.5-1.4-.2-1.2-1.9.6,0-.7,17.4-2.8,18.9-3.2,6.9-2.1,12.9-5.7,17.5-11.3s5.9-9.7,9.3-14.3l.9-1.1c1.6-1.5.7-1.5-2.6,0,0,0,5.2,0,5.5,0,4.2,0,8.3-.2,12.4-.5,7.9-.5,16.3-1.4,23.1-5.8s9.8-9.3,6.8-15.3-12.5-7.1-18.7-7.8c-8.5-1-17-1.4-25.5-1.1s-18,1.9-27,2.9c-7.2.8-14.2.3-19.8-4.7s-24.2,3-18.9,7.9h0Z"/>
    <path class="st0" d="M150.5,760.7c4.3,0,11-1.4,13.4-5.5s-2-5.8-5.4-5.8-11,1.4-13.4,5.5,2,5.8,5.4,5.8h0Z"/>
    <path class="st0" d="M43.9,730.7c10.1,6.8,24.5,5.3,36.1,5.3s14.2-.3,21.3-1,12.8-1.8,18.9.6c6-2.4,11.9-4.9,17.9-7.3-12.3-3.1-24.8-4.5-37.5-4.3l-11,8.1c15.3-1.1,32-1.7,43.7,10,4.8,4.8,7.9,11.5,7.4,18.4s-4.4,16.5-9.4,18.2-8.3,3-6.1,5.7,10.9-.5,13-1.2c18.5-6.3,30.3-28.4,16.7-45.1-13.5-16.7-37.3-15.3-56.6-13.9s-9.5,1.6-12.9,4.3-1.6,3.8,1.9,3.8c11.5-.2,22.8,1.1,34,3.9s9.3-.6,13-2.1,7.9-4,4.9-5.2c-12.6-4.8-25.6-1.6-38.6-1s-14,.1-21,0-11.5-.4-16.6-3.8-9.8,0-13,1.2-9,3.7-6.1,5.7h0Z"/>
    <path class="st0" d="M33.8,792c13.2,7,28.2,6.7,42.7,9.1s15.7,3.7,23.4,6.3,18.3,2.3,23.9-4.6,2.4-5,3.4-7.7,2.9-6.7,5-9.8c3.7-5.5,10.2-9.4,12.8-15.5,4.9-11.4,7-26.7-.4-37.4s-18.5,0-19.6,5.2-1.5,7.5-3.2,10.7-1.5,1.8-2,2.8c.3-.6,3-.3-.8-.4-9.6,0-18.5-.3-27.9,1.7s-18.5,4.5-22.4,13-4.9,13.3-11.4,17.6-4.6,3-3.9,5.5,4.2,2.9,6.1,2.8c12.5-.6,23.9,5.8,35.7,9.2,6.9,2,15.1.8,20.8-3.8s8-10.5,11.5-15.6,21-24.8,6.3-28.3c-6.9-1.6-13.9,1.3-19.9,4.2s-8.1.9-12.2-1-16.3.3-18.2,6.1-3.9,11.4-5.8,17.1,2.1,3.5,3.9,3.9c9,2.4,18.7,6.6,27.9,2.8s12.3-12.4,17-18.9-2.4-5.5-5.4-5.5c-9.5-.1-28.7,3.3-26.8,16.6s21.3,1.8,20.3-5.4,1.5-2.5-1.6-1.1-2,.9,0,.9l-5.4-5.5c-1.8,2.5-3.6,5-5.4,7.5s-1.4,2-2.2,3-4,4.1-.8,2c2.6-.9,5.1-1.7,7.7-2.6,2.3-.2,2.9.3.5-.6s-3.2-.9-4.8-1.3c-2.9-.8-5.8-1.5-8.7-2.3l3.9,3.9c1.9-5.7,3.9-11.4,5.8-17.1l-18.2,6.1c5.8,2.7,12.1,3.8,18.5,3.5s7.9-.8,11.7-2,9.6-4,9.5-4c0,0-5.3.4-5.6.6s-2,4-2.3,4.5c-1.9,3-3.9,5.9-5.9,8.8s-3.9,5.9-5.9,8.8-3.7,6.7-4.9,7.3c2.6-.9,5.1-1.7,7.7-2.6,2.3.2,2.5.1.6-.3-.8-.3-1.7-.5-2.5-.8-1.7-.6-3.4-1.2-5-1.8-3.6-1.3-7.2-2.6-10.9-3.8-7.5-2.3-15-3.9-22.9-3.5l2.2,8.2c7.4-4.9,13.4-11.1,16.9-19.4s1.9-3.9,2.1-5.7-.3-.2-.4-.1c.7-.4,2-.5,2.8-.7,4.4-1,8.8-1.3,13.3-1.2,10.1.3,20,.4,28.9-5.4s10.2-12.8,12-21.1l-19.6,5.2c3.4,4.8,3.8,10.9,3,16.6s-1.6,12.5-4.6,16.5-8.3,8.1-11.5,13.2-3.1,5.5-4.4,8.4-1.2,2.9-1.7,4.4l-.5,1.5c-.8,1.7-.4,1.7,1.1-.1l7.7-2.6c3.1-.5,2.3.3.5-.5s-2.9-1.1-4.4-1.6c-3-1-6-1.9-9-2.7-6.2-1.7-12.6-2.9-19-3.7-11.2-1.4-22.6-1.8-32.8-7.2-4.1-2.2-10.7-.2-14.3,2s-6,5.3-1.9,7.5h0Z"/>
    <path class="st0" d="M135.9,734.9c40.9,9.9,83.6,7.3,124.9,1.5s10.6-3.1,11.1-8.4-5.3-7.5-9.5-7c-11.7,1.4-23.2,3.7-34.3,7.9s-21,9-31,14.3c-19.2,10.1-36.5,23.1-52,38.3l16.3-2.8c-8.1-5.4-1-15.4,4.3-19.8s4.6-4.9,3.3-7.6-2.3-4.2-4.5-5.9-2.8-1.1-3-2.7l-.4,4,.3-1-2.9,3.6.8-.7-4.9,2.4,1.2-.3-5.4.4c16.7.6,32.9,1.3,49.6-1.1s33.5-6.9,49.6-13.1l-13.8-1.7c.7,1.1.5,1.8.3,3l8.4-7.9c-18.8,3.5-38.5,6.4-56.7,12.6-18.4,6.3-31.8,18.7-45,32.6-3.4,3.5-1.5,8.6,2.7,10.2s10.8-.1,14.3-3.8c10.8-11.3,21.6-21.7,37-26.1s34.3-7.8,51.5-11c3.9-.7,7.7-4,8.4-7.9s-.2-7.3-2.3-10.7c-2.7-4.6-10-3.2-13.8-1.7-19.1,7.4-39.4,11.3-59.9,12.1-4.9.2-9.9.2-14.8,0s-11.2-1.5-16.4.6-9.3,6.6-7.8,12.3,1.9,4,3.6,5.4,1.6,1.3,2.5,1.7,2,1.7,1.3.3l3.3-7.6c-6.7,5.5-13.1,12.5-14.6,21.4s1.8,15.8,8.3,20.2c5.3,3.6,12.2,1.3,16.3-2.8,13-12.8,27.9-23.7,44-32.1s34.8-17,54.4-19.3l1.7-15.4c-39.8,5.6-80.3,8.1-119.6-1.4-10.3-2.5-20.2,12-6.9,15.2h0Z"/>
    <path class="st0" d="M100.4,794.9c4.4,0,11-1.4,13.4-5.6,2.2-4.1-1.9-6.4-5.6-6.4s-11,1.4-13.4,5.6c-2.2,4.1,1.9,6.4,5.6,6.4h0Z"/>
  </g>
</svg>